Spira-ProtoRoman110R.ufo
<glyph name="ampersand" format="1">
  <advance width="795"/>
  <unicode hex="0026"/>
  <outline>
    <contour>
      <point x="239" y="348" type="curve"/>
      <point x="153" y="315"/>
      <point x="73" y="247"/>
      <point x="73" y="156" type="curve"/>
      <point x="73" y="48"/>
      <point x="157" y="-10"/>
      <point x="261" y="-10" type="curve"/>
      <point x="359" y="-10"/>
      <point x="417" y="55"/>
      <point x="469" y="137" type="curve"/>
      <point x="510" y="70"/>
      <point x="550" y="-10"/>
      <point x="640" y="-10" type="curve"/>
      <point x="712" y="-10"/>
      <point x="740" y="48"/>
      <point x="751" y="117" type="curve"/>
      <point x="728" y="124" type="line"/>
      <point x="711" y="94"/>
      <point x="686" y="84"/>
      <point x="663" y="84" type="curve"/>
      <point x="606" y="84"/>
      <point x="572" y="163"/>
      <point x="536" y="218" type="curve"/>
      <point x="682" y="407" type="line" smooth="yes"/>
      <point x="700" y="431"/>
      <point x="720" y="453"/>
      <point x="739" y="456" type="curve"/>
      <point x="739" y="484" type="line"/>
      <point x="731" y="483"/>
      <point x="602" y="483"/>
      <point x="602" y="483" type="curve"/>
      <point x="602" y="455" type="line"/>
      <point x="628" y="455"/>
      <point x="637" y="444"/>
      <point x="626" y="426" type="curve"/>
      <point x="515" y="245" type="line"/>
      <point x="473" y="309"/>
      <point x="407" y="357"/>
      <point x="332" y="383" type="curve"/>
      <point x="387" y="401"/>
      <point x="431" y="449"/>
      <point x="431" y="495" type="curve"/>
      <point x="431" y="559"/>
      <point x="387" y="593"/>
      <point x="322" y="593" type="curve"/>
      <point x="241" y="593"/>
      <point x="144" y="546"/>
      <point x="144" y="461" type="curve"/>
      <point x="144" y="408"/>
      <point x="177" y="362"/>
    </contour>
    <contour>
      <point x="453" y="160" type="curve"/>
      <point x="415" y="110"/>
      <point x="363" y="54"/>
      <point x="296" y="54" type="curve"/>
      <point x="214" y="54"/>
      <point x="168" y="100"/>
      <point x="168" y="183" type="curve"/>
      <point x="168" y="251"/>
      <point x="206" y="302"/>
      <point x="274" y="337" type="curve"/>
      <point x="353" y="321"/>
      <point x="414" y="225"/>
    </contour>
    <contour>
      <point x="350" y="480" type="curve"/>
      <point x="350" y="455"/>
      <point x="337" y="419"/>
      <point x="300" y="393" type="curve"/>
      <point x="255" y="411"/>
      <point x="223" y="440"/>
      <point x="223" y="485" type="curve"/>
      <point x="223" y="526"/>
      <point x="246" y="552"/>
      <point x="286" y="552" type="curve"/>
      <point x="327" y="552"/>
      <point x="350" y="520"/>
    </contour>
  </outline>
</glyph>
<glyph name="hyphen" format="1">
  <advance width="326"/>
  <unicode hex="002D"/>
  <outline>
    <contour>
      <point x="288" y="481" type="line"/>
      <point x="28" y="173" type="line"/>
      <point x="28" y="117" type="line"/>
      <point x="37" y="117" type="line"/>
      <point x="298" y="378" type="line"/>
      <point x="298" y="481" type="line"/>
    </contour>
  </outline>
</glyph>
<glyph name="period" format="1">
  <advance width="237"/>
  <unicode hex="002E"/>
  <outline>
    <contour>
      <point x="123" y="126" type="line"/>
      <point x="115" y="126" type="line"/>
      <point x="53" y="62" type="line"/>
      <point x="53" y="55" type="line"/>
      <point x="114" y="-10" type="line"/>
      <point x="122" y="-10" type="line"/>
      <point x="184" y="55" type="line"/>
      <point x="184" y="62" type="line"/>
    </contour>
  </outline>
</glyph>
<glyph name="question" format="1">
  <advance width="328"/>
  <unicode hex="003F"/>
  <outline>
    <contour>
      <point x="50" y="339" type="line"/>
      <point x="117" y="266" type="line"/>
      <point x="126" y="266" type="line"/>
      <point x="196" y="340" type="line"/>
      <point x="196" y="348" type="line"/>
      <point x="183" y="360"/>
      <point x="164" y="373"/>
      <point x="164" y="389" type="curve"/>
      <point x="164" y="420"/>
      <point x="228" y="465"/>
      <point x="228" y="524" type="curve"/>
      <point x="228" y="556"/>
      <point x="228" y="580"/>
      <point x="228" y="610" type="curve"/>
      <point x="228" y="645"/>
      <point x="261" y="669"/>
      <point x="278" y="683" type="curve"/>
      <point x="278" y="688" type="line"/>
      <point x="237" y="730" type="line"/>
      <point x="233" y="730" type="line"/>
      <point x="201" y="713"/>
      <point x="185" y="674"/>
      <point x="185" y="645" type="curve"/>
      <point x="185" y="609"/>
      <point x="193" y="578"/>
      <point x="193" y="520" type="curve"/>
      <point x="193" y="463"/>
      <point x="110" y="413"/>
      <point x="50" y="347" type="curve"/>
    </contour>
    <component base="period" xOffset="13"/>
  </outline>
</glyph>
<glyph name="A" format="1">
  <advance width="758"/>
  <unicode hex="0041"/>
  <outline>
    <contour>
      <point x="126" y="102" type="curve"/>
      <point x="378" y="631" type="line"/>
      <point x="365" y="631" type="line"/>
      <point x="587" y="96" type="line" smooth="yes"/>
      <point x="601" y="62"/>
      <point x="600" y="47"/>
      <point x="574" y="38" type="curve"/>
      <point x="551" y="30" type="line"/>
      <point x="551" y="0" type="line"/>
      <point x="758" y="0" type="line"/>
      <point x="758" y="37" type="line" smooth="yes"/>
      <point x="743" y="55"/>
      <point x="729" y="77"/>
      <point x="720" y="96" type="curve"/>
      <point x="469" y="621" type="line" smooth="yes"/>
      <point x="453" y="654"/>
      <point x="441" y="676"/>
      <point x="436" y="697" type="curve"/>
      <point x="350" y="697" type="line"/>
      <point x="340" y="667"/>
      <point x="335" y="656"/>
      <point x="317" y="622" type="curve"/>
      <point x="57" y="128" type="line"/>
      <point x="39" y="97"/>
      <point x="22" y="65"/>
      <point x="0" y="37" type="curve"/>
      <point x="0" y="0" type="line"/>
      <point x="175" y="0" type="line"/>
      <point x="175" y="27" type="line"/>
      <point x="139" y="33" type="line" smooth="yes"/>
      <point x="110" y="38"/>
      <point x="107" y="62"/>
    </contour>
    <contour>
      <point x="471" y="390" type="line"/>
      <point x="249" y="390" type="line"/>
      <point x="229" y="353" type="line"/>
      <point x="486" y="353" type="line"/>
    </contour>
    <contour>
      <point x="379" y="25" type="move" name="bottom"/>
    </contour>
    <contour>
      <point x="682" y="34" type="move" name="ogonek"/>
    </contour>
    <contour>
      <point x="379" y="722" type="move" name="top"/>
    </contour>
  </outline>
</glyph>
<glyph name="B" format="1">
  <advance width="623"/>
  <unicode hex="0042"/>
  <outline>
    <contour>
      <point x="70" y="35" type="curve"/>
      <point x="50" y="32" type="line"/>
      <point x="50" y="-5" type="line"/>
      <point x="139" y="3"/>
      <point x="228" y="2"/>
      <point x="290" y="2" type="curve"/>
      <point x="463" y="2"/>
      <point x="595" y="73"/>
      <point x="595" y="209" type="curve"/>
      <point x="595" y="330"/>
      <point x="510" y="395"/>
      <point x="399" y="404" type="curve"/>
      <point x="403" y="391" type="line"/>
      <point x="475" y="410"/>
      <point x="558" y="458"/>
      <point x="558" y="542" type="curve"/>
      <point x="558" y="659"/>
      <point x="441" y="700"/>
      <point x="318" y="700" type="curve"/>
      <point x="233" y="700"/>
      <point x="156" y="701"/>
      <point x="61" y="706" type="curve"/>
      <point x="56" y="668" type="line"/>
      <point x="71" y="666" type="line" smooth="yes"/>
      <point x="92" y="663"/>
      <point x="105" y="656"/>
      <point x="106" y="628" type="curve"/>
      <point x="112" y="451"/>
      <point x="115" y="249"/>
      <point x="102" y="71" type="curve"/>
      <point x="100" y="43"/>
      <point x="90" y="38"/>
    </contour>
    <contour>
      <point x="211" y="66" type="curve"/>
      <point x="213" y="368" type="line"/>
      <point x="280" y="367" type="line" smooth="yes"/>
      <point x="404" y="365"/>
      <point x="479" y="297"/>
      <point x="479" y="202" type="curve"/>
      <point x="479" y="112"/>
      <point x="420" y="44"/>
      <point x="305" y="44" type="curve"/>
      <point x="258" y="44"/>
      <point x="230" y="53"/>
    </contour>
    <contour>
      <point x="280" y="404" type="curve"/>
      <point x="213" y="404" type="line"/>
      <point x="218" y="601" type="line" smooth="yes"/>
      <point x="219" y="646"/>
      <point x="252" y="667"/>
      <point x="296" y="667" type="curve"/>
      <point x="403" y="667"/>
      <point x="441" y="604"/>
      <point x="441" y="532" type="curve"/>
      <point x="441" y="454"/>
      <point x="372" y="404"/>
    </contour>
    <contour>
      <point x="308" y="25" type="move" name="bottom"/>
    </contour>
    <contour>
      <point x="308" y="722" type="move" name="top"/>
    </contour>
  </outline>
</glyph>
<glyph name="C" format="1">
  <advance width="744"/>
  <unicode hex="0043"/>
  <outline>
    <contour>
      <point x="710" y="158" type="line"/>
      <point x="684" y="160" type="line"/>
      <point x="646" y="97"/>
      <point x="566" y="31"/>
      <point x="438" y="31" type="curve"/>
      <point x="281" y="31"/>
      <point x="170" y="167"/>
      <point x="170" y="346" type="curve"/>
      <point x="170" y="545"/>
      <point x="277" y="674"/>
      <point x="439" y="674" type="curve"/>
      <point x="558" y="674"/>
      <point x="622" y="640"/>
      <point x="688" y="549" type="curve"/>
      <point x="714" y="549" type="line"/>
      <point x="714" y="674" type="line"/>
      <point x="625" y="682"/>
      <point x="541" y="710"/>
      <point x="438" y="710" type="curve"/>
      <point x="201" y="710"/>
      <point x="45" y="556"/>
      <point x="45" y="346" type="curve"/>
      <point x="45" y="130"/>
      <point x="187" y="-9"/>
      <point x="437" y="-9" type="curve"/>
      <point x="438" y="-9" type="line" smooth="yes"/>
      <point x="526" y="-9"/>
      <point x="622" y="8"/>
      <point x="707" y="34" type="curve"/>
    </contour>
    <contour>
      <point x="375" y="25" type="move" name="bottom"/>
    </contour>
    <contour>
      <point x="375" y="722" type="move" name="top"/>
    </contour>
  </outline>
</glyph>
<glyph name="D" format="1">
  <advance width="815"/>
  <unicode hex="0044"/>
  <outline>
    <contour>
      <point x="364" y="702" type="curve"/>
      <point x="50" y="702" type="line"/>
      <point x="50" y="672" type="line"/>
      <point x="67" y="661"/>
      <point x="78" y="639"/>
      <point x="78" y="602" type="curve"/>
      <point x="78" y="440"/>
      <point x="80" y="363"/>
      <point x="76" y="200" type="curve"/>
      <point x="74" y="124"/>
      <point x="66" y="45"/>
      <point x="55" y="1" type="curve"/>
      <point x="77" y="-8" type="line"/>
      <point x="89" y="-4"/>
      <point x="155" y="-1"/>
      <point x="178" y="-1" type="curve"/>
      <point x="220" y="-1"/>
      <point x="245" y="-4"/>
      <point x="379" y="-4" type="curve"/>
      <point x="612" y="-4"/>
      <point x="770" y="152"/>
      <point x="770" y="355" type="curve"/>
      <point x="770" y="577"/>
      <point x="599" y="702"/>
    </contour>
    <contour>
      <point x="191" y="44" type="curve"/>
      <point x="187" y="260"/>
      <point x="185" y="466"/>
      <point x="187" y="664" type="curve"/>
      <point x="479" y="691"/>
      <point x="634" y="588"/>
      <point x="639" y="355" type="curve"/>
      <point x="644" y="157"/>
      <point x="530" y="29"/>
      <point x="358" y="29" type="curve"/>
      <point x="279" y="29"/>
      <point x="237" y="33"/>
    </contour>
    <contour>
      <point x="393" y="24" type="move" name="bottom"/>
    </contour>
    <contour>
      <point x="393" y="373" type="move" name="center"/>
    </contour>
    <contour>
      <point x="393" y="722" type="move" name="top"/>
    </contour>
  </outline>
</glyph>
<glyph name="E" format="1">
  <advance width="665"/>
  <unicode hex="0045"/>
  <outline>
    <contour>
      <point x="59" y="-4" type="curve"/>
      <point x="52" y="20" type="line"/>
      <point x="77" y="35"/>
      <point x="85" y="35"/>
      <point x="86" y="64" type="curve"/>
      <point x="92" y="234"/>
      <point x="94" y="460"/>
      <point x="87" y="630" type="curve"/>
      <point x="86" y="656"/>
      <point x="79" y="656"/>
      <point x="50" y="669" type="curve"/>
      <point x="51" y="706" type="line"/>
      <point x="238" y="701"/>
      <point x="421" y="699"/>
      <point x="598" y="701" type="curve"/>
      <point x="586" y="659"/>
      <point x="579" y="616"/>
      <point x="575" y="574" type="curve"/>
      <point x="551" y="574" type="line"/>
      <point x="536" y="624"/>
      <point x="553" y="659"/>
      <point x="503" y="659" type="curve"/>
      <point x="194" y="661" type="line"/>
      <point x="193" y="401" type="line"/>
      <point x="465" y="401" type="line" smooth="yes"/>
      <point x="490" y="401"/>
      <point x="508" y="413"/>
      <point x="523" y="437" type="curve"/>
      <point x="557" y="491" type="line"/>
      <point x="576" y="490" type="line"/>
      <point x="503" y="164" type="line"/>
      <point x="484" y="167" type="line"/>
      <point x="488" y="351" type="line"/>
      <point x="194" y="351" type="line"/>
      <point x="195" y="48" type="line"/>
      <point x="412" y="48" type="line" smooth="yes"/>
      <point x="514" y="48"/>
      <point x="556" y="87"/>
      <point x="616" y="154" type="curve"/>
      <point x="637" y="145" type="line"/>
      <point x="582" y="0" type="line"/>
      <point x="459" y="6"/>
      <point x="114" y="2"/>
    </contour>
    <contour>
      <point x="335" y="25" type="move" name="bottom"/>
    </contour>
    <contour>
      <point x="599" y="34" type="move" name="ogonek"/>
    </contour>
    <contour>
      <point x="335" y="722" type="move" name="top"/>
    </contour>
    <contour>
      <point x="23" y="722" type="move" name="topleft"/>
    </contour>
  </outline>
</glyph>
<glyph name="F" format="1">
  <advance width="558"/>
  <unicode hex="0046"/>
  <outline>
    <contour>
      <point x="374" y="0" type="line"/>
      <point x="62" y="-1" type="line"/>
      <point x="61" y="23" type="line"/>
      <point x="79" y="40"/>
      <point x="84" y="56"/>
      <point x="85" y="79" type="curve"/>
      <point x="93" y="252"/>
      <point x="90" y="428"/>
      <point x="86" y="600" type="curve"/>
      <point x="85" y="640"/>
      <point x="79" y="647"/>
      <point x="66" y="653" type="curve"/>
      <point x="50" y="660" type="line"/>
      <point x="51" y="697" type="line"/>
      <point x="216" y="697" type="line"/>
      <point x="215" y="698"/>
      <point x="556" y="696"/>
      <point x="556" y="696" type="curve"/>
      <point x="558" y="564" type="line"/>
      <point x="534" y="564" type="line"/>
      <point x="499" y="617"/>
      <point x="466" y="654"/>
      <point x="333" y="656" type="curve"/>
      <point x="193" y="658" type="line"/>
      <point x="192" y="401" type="line"/>
      <point x="425" y="401" type="line" smooth="yes"/>
      <point x="475" y="401"/>
      <point x="485" y="418"/>
      <point x="512" y="465" type="curve"/>
      <point x="535" y="465" type="line"/>
      <point x="512" y="308" type="line"/>
      <point x="494" y="308" type="line"/>
      <point x="479" y="339"/>
      <point x="478" y="350"/>
      <point x="449" y="350" type="curve"/>
      <point x="193" y="350" type="line"/>
      <point x="193" y="103" type="line" smooth="yes"/>
      <point x="193" y="49"/>
      <point x="197" y="47"/>
      <point x="242" y="42" type="curve"/>
      <point x="374" y="27" type="line"/>
    </contour>
    <contour>
      <point x="276" y="25" type="move" name="bottom"/>
    </contour>
    <contour>
      <point x="276" y="722" type="move" name="top"/>
    </contour>
  </outline>
</glyph>
<glyph name="H" format="1">
  <advance width="922"/>
  <unicode hex="0048"/>
  <outline>
    <contour>
      <point x="358" y="1" type="line"/>
      <point x="50" y="1" type="line"/>
      <point x="50" y="33" type="line"/>
      <point x="87" y="38" type="line" smooth="yes"/>
      <point x="99" y="40"/>
      <point x="107" y="47"/>
      <point x="107" y="70" type="curve"/>
      <point x="107" y="257"/>
      <point x="107" y="444"/>
      <point x="107" y="631" type="curve"/>
      <point x="107" y="654"/>
      <point x="99" y="663"/>
      <point x="87" y="664" type="curve"/>
      <point x="50" y="668" type="line"/>
      <point x="50" y="697" type="line"/>
      <point x="358" y="697" type="line"/>
      <point x="359" y="665" type="line"/>
      <point x="267" y="658" type="line" smooth="yes"/>
      <point x="226" y="655"/>
      <point x="219" y="652"/>
      <point x="218" y="618" type="curve"/>
      <point x="216" y="545"/>
      <point x="212" y="472"/>
      <point x="214" y="399" type="curve"/>
      <point x="708" y="399" type="line"/>
      <point x="710" y="472"/>
      <point x="708" y="545"/>
      <point x="706" y="618" type="curve"/>
      <point x="705" y="653"/>
      <point x="696" y="654"/>
      <point x="657" y="657" type="curve"/>
      <point x="565" y="665" type="line"/>
      <point x="564" y="697" type="line"/>
      <point x="872" y="697" type="line"/>
      <point x="872" y="668" type="line"/>
      <point x="835" y="664" type="line" smooth="yes"/>
      <point x="823" y="663"/>
      <point x="815" y="654"/>
      <point x="815" y="631" type="curve"/>
      <point x="815" y="444"/>
      <point x="815" y="257"/>
      <point x="815" y="70" type="curve"/>
      <point x="815" y="47"/>
      <point x="823" y="40"/>
      <point x="835" y="38" type="curve"/>
      <point x="872" y="33" type="line"/>
      <point x="872" y="1" type="line"/>
      <point x="564" y="1" type="line"/>
      <point x="564" y="33" type="line"/>
      <point x="661" y="45" type="line" smooth="yes"/>
      <point x="691" y="49"/>
      <point x="699" y="49"/>
      <point x="701" y="77" type="curve"/>
      <point x="707" y="165"/>
      <point x="710" y="252"/>
      <point x="708" y="349" type="curve"/>
      <point x="214" y="349" type="line"/>
      <point x="212" y="252"/>
      <point x="216" y="165"/>
      <point x="219" y="77" type="curve"/>
      <point x="220" y="49"/>
      <point x="229" y="49"/>
      <point x="259" y="45" type="curve"/>
      <point x="358" y="33" type="line"/>
    </contour>
    <contour>
      <point x="461" y="25" type="move" name="bottom"/>
    </contour>
    <contour>
      <point x="461" y="373" type="move" name="center"/>
    </contour>
    <contour>
      <point x="461" y="722" type="move" name="top"/>
    </contour>
    <contour>
      <point x="33" y="722" type="move" name="topleft"/>
    </contour>
  </outline>
</glyph>
<glyph name="I" format="1">
  <advance width="336"/>
  <unicode hex="0049"/>
  <outline>
    <contour>
      <point x="286" y="0" type="line"/>
      <point x="49" y="0" type="line"/>
      <point x="50" y="25" type="line"/>
      <point x="87" y="33"/>
      <point x="104" y="57"/>
      <point x="106" y="103" type="curve"/>
      <point x="113" y="271"/>
      <point x="112" y="430"/>
      <point x="105" y="611" type="curve"/>
      <point x="103" y="661"/>
      <point x="99" y="661"/>
      <point x="87" y="663" type="curve"/>
      <point x="40" y="670" type="line"/>
      <point x="40" y="700" type="line"/>
      <point x="286" y="700" type="line"/>
      <point x="286" y="674" type="line"/>
      <point x="249" y="666"/>
      <point x="224" y="646"/>
      <point x="221" y="588" type="curve"/>
      <point x="214" y="445"/>
      <point x="214" y="267"/>
      <point x="219" y="74" type="curve"/>
      <point x="220" y="35"/>
      <point x="221" y="34"/>
      <point x="238" y="32" type="curve"/>
      <point x="286" y="25" type="line"/>
    </contour>
    <contour>
      <point x="163" y="25" type="move" name="bottom"/>
    </contour>
    <contour>
      <point x="306" y="34" type="move" name="ogonek"/>
    </contour>
    <contour>
      <point x="163" y="722" type="move" name="top"/>
    </contour>
    <contour>
      <point x="3" y="722" type="move" name="topleft"/>
    </contour>
  </outline>
</glyph>
<glyph name="J" format="1">
  <advance width="328"/>
  <unicode hex="004A"/>
  <outline>
    <contour>
      <point x="15" y="-215" type="curve"/>
      <point x="46" y="-231" type="line"/>
      <point x="147" y="-129"/>
      <point x="237" y="-37"/>
      <point x="237" y="129" type="curve"/>
      <point x="237" y="610" type="line" smooth="yes"/>
      <point x="237" y="645"/>
      <point x="253" y="663"/>
      <point x="278" y="673" type="curve"/>
      <point x="278" y="701" type="line"/>
      <point x="71" y="701" type="line"/>
      <point x="71" y="669" type="line"/>
      <point x="117" y="662" type="line" smooth="yes"/>
      <point x="129" y="660"/>
      <point x="135" y="656"/>
      <point x="135" y="641" type="curve"/>
      <point x="137" y="101" type="line" smooth="yes"/>
      <point x="138" y="-40"/>
      <point x="99" y="-115"/>
    </contour>
  </outline>
</glyph>
<glyph name="K" format="1">
  <advance width="617"/>
  <unicode hex="004B"/>
  <outline>
    <contour>
      <point x="251" y="19" type="curve"/>
      <point x="251" y="0" type="line"/>
      <point x="41" y="0" type="line"/>
      <point x="40" y="25" type="line"/>
      <point x="71" y="32" type="line" smooth="yes"/>
      <point x="88" y="36"/>
      <point x="89" y="35"/>
      <point x="90" y="74" type="curve"/>
      <point x="95" y="267"/>
      <point x="92" y="545"/>
      <point x="89" y="608" type="curve"/>
      <point x="87" y="657"/>
      <point x="68" y="668"/>
      <point x="43" y="674" type="curve"/>
      <point x="43" y="700" type="line"/>
      <point x="252" y="700" type="line"/>
      <point x="252" y="675" type="line"/>
      <point x="223" y="668" type="line" smooth="yes"/>
      <point x="211" y="665"/>
      <point x="207" y="666"/>
      <point x="205" y="616" type="curve"/>
      <point x="197" y="427"/>
      <point x="200" y="265"/>
      <point x="204" y="97" type="curve"/>
      <point x="205" y="57"/>
      <point x="220" y="45"/>
    </contour>
    <contour>
      <point x="449" y="565" type="curve"/>
      <point x="156" y="327" type="line"/>
      <point x="156" y="367" type="line"/>
      <point x="403" y="595" type="line" smooth="yes"/>
      <point x="443" y="631"/>
      <point x="424" y="655"/>
      <point x="370" y="671" type="curve"/>
      <point x="369" y="699" type="line"/>
      <point x="612" y="700" type="line"/>
      <point x="612" y="675" type="line"/>
      <point x="560" y="662"/>
      <point x="504" y="609"/>
    </contour>
    <contour>
      <point x="176" y="357" type="curve"/>
      <point x="184" y="398" type="line"/>
      <point x="228" y="433" type="line"/>
      <point x="273" y="398"/>
      <point x="533" y="92"/>
      <point x="614" y="26" type="curve"/>
      <point x="612" y="2" type="line"/>
      <point x="388" y="1" type="line"/>
      <point x="388" y="26" type="line"/>
      <point x="430" y="35"/>
      <point x="443" y="50"/>
      <point x="416" y="86" type="curve"/>
      <point x="331" y="199"/>
      <point x="267" y="273"/>
    </contour>
  </outline>
</glyph>
<glyph name="L" format="1">
  <advance width="647"/>
  <unicode hex="004C"/>
  <outline>
    <contour>
      <point x="50" y="-1" type="curve"/>
      <point x="50" y="23" type="line"/>
      <point x="79" y="33"/>
      <point x="94" y="52"/>
      <point x="95" y="75" type="curve"/>
      <point x="103" y="248"/>
      <point x="93" y="476"/>
      <point x="93" y="649" type="curve"/>
      <point x="93" y="670"/>
      <point x="90" y="670"/>
      <point x="67" y="674" type="curve"/>
      <point x="67" y="700" type="line"/>
      <point x="279" y="700" type="line"/>
      <point x="279" y="674" type="line"/>
      <point x="210" y="665"/>
      <point x="211" y="666"/>
      <point x="210" y="645" type="curve"/>
      <point x="201" y="462"/>
      <point x="199" y="228"/>
      <point x="199" y="46" type="curve"/>
      <point x="410" y="60" type="line" smooth="yes"/>
      <point x="494" y="66"/>
      <point x="564" y="99"/>
      <point x="606" y="174" type="curve"/>
      <point x="632" y="169" type="line"/>
      <point x="592" y="-1" type="line"/>
      <point x="411" y="2"/>
      <point x="239" y="2"/>
    </contour>
    <contour>
      <point x="325" y="25" type="move" name="bottom"/>
    </contour>
    <contour>
      <point x="325" y="373" type="move" name="center"/>
    </contour>
    <contour>
      <point x="325" y="722" type="move" name="top"/>
    </contour>
    <contour>
      <point x="628" y="722" type="move" name="topright"/>
    </contour>
  </outline>
</glyph>
<glyph name="M" format="1">
  <advance width="1031"/>
  <unicode hex="004D"/>
  <outline>
    <contour>
      <point x="23" y="0" type="line"/>
      <point x="277" y="0" type="line"/>
      <point x="277" y="32" type="line"/>
      <point x="188" y="40" type="line" smooth="yes"/>
      <point x="151" y="43"/>
      <point x="135" y="57"/>
      <point x="138" y="93" type="curve"/>
      <point x="170" y="539" type="line"/>
      <point x="470" y="0" type="line"/>
      <point x="508" y="0" type="line"/>
      <point x="788" y="543" type="line"/>
      <point x="826" y="103" type="line" smooth="yes"/>
      <point x="830" y="60"/>
      <point x="832" y="47"/>
      <point x="804" y="43" type="curve"/>
      <point x="724" y="33" type="line"/>
      <point x="724" y="0" type="line"/>
      <point x="1004" y="0" type="line"/>
      <point x="1004" y="33" type="line"/>
      <point x="973" y="41" type="line" smooth="yes"/>
      <point x="952" y="46"/>
      <point x="947" y="68"/>
      <point x="945" y="85" type="curve"/>
      <point x="924" y="260"/>
      <point x="905" y="436"/>
      <point x="892" y="611" type="curve"/>
      <point x="891" y="624"/>
      <point x="889" y="649"/>
      <point x="910" y="653" type="curve"/>
      <point x="974" y="664" type="line"/>
      <point x="974" y="697" type="line"/>
      <point x="687" y="697" type="line"/>
      <point x="687" y="664" type="line"/>
      <point x="739" y="660" type="line" smooth="yes"/>
      <point x="770" y="658"/>
      <point x="783" y="642"/>
      <point x="771" y="619" type="curve"/>
      <point x="519" y="135" type="line"/>
      <point x="243" y="625" type="line" smooth="yes"/>
      <point x="230" y="648"/>
      <point x="254" y="656"/>
      <point x="272" y="658" type="curve"/>
      <point x="330" y="664" type="line"/>
      <point x="330" y="697" type="line"/>
      <point x="33" y="696" type="line"/>
      <point x="33" y="663" type="line"/>
      <point x="96" y="654" type="line" smooth="yes"/>
      <point x="112" y="652"/>
      <point x="120" y="637"/>
      <point x="119" y="619" type="curve"/>
      <point x="109" y="443"/>
      <point x="98" y="266"/>
      <point x="79" y="91" type="curve"/>
      <point x="75" y="54"/>
      <point x="72" y="43"/>
      <point x="49" y="38" type="curve"/>
      <point x="23" y="32" type="line"/>
    </contour>
    <contour>
      <point x="516" y="25" type="move" name="bottom"/>
    </contour>
    <contour>
      <point x="516" y="722" type="move" name="top"/>
    </contour>
  </outline>
</glyph>
<glyph name="O" format="1">
  <advance width="833"/>
  <unicode hex="004F"/>
  <outline>
    <contour>
      <point x="412" y="-8" type="curve"/>
      <point x="627" y="-8"/>
      <point x="788" y="137"/>
      <point x="788" y="361" type="curve"/>
      <point x="788" y="576"/>
      <point x="627" y="709"/>
      <point x="412" y="709" type="curve"/>
      <point x="191" y="709"/>
      <point x="45" y="546"/>
      <point x="45" y="342" type="curve"/>
      <point x="45" y="132"/>
      <point x="195" y="-8"/>
    </contour>
    <contour>
      <point x="665" y="342" type="curve"/>
      <point x="665" y="174"/>
      <point x="576" y="32"/>
      <point x="428" y="32" type="curve"/>
      <point x="268" y="32"/>
      <point x="164" y="193"/>
      <point x="164" y="376" type="curve"/>
      <point x="164" y="519"/>
      <point x="252" y="669"/>
      <point x="396" y="669" type="curve"/>
      <point x="561" y="669"/>
      <point x="665" y="529"/>
    </contour>
    <contour>
      <point x="413" y="25" type="move" name="bottom"/>
    </contour>
    <contour>
      <point x="413" y="373" type="move" name="center"/>
    </contour>
    <contour>
      <point x="760" y="34" type="move" name="ogonek"/>
    </contour>
    <contour>
      <point x="413" y="722" type="move" name="top"/>
    </contour>
    <contour>
      <point x="-3" y="722" type="move" name="topleft"/>
    </contour>
    <contour>
      <point x="829" y="722" type="move" name="topright"/>
    </contour>
  </outline>
</glyph>
<glyph name="P" format="1">
  <advance width="614"/>
  <unicode hex="0050"/>
  <outline>
    <contour>
      <point x="50" y="28" type="line"/>
      <point x="50" y="0" type="line"/>
      <point x="356" y="0" type="line"/>
      <point x="356" y="23" type="line"/>
      <point x="227" y="48" type="line" smooth="yes"/>
      <point x="206" y="52"/>
      <point x="205" y="56"/>
      <point x="204" y="83" type="curve"/>
      <point x="197" y="270"/>
      <point x="200" y="473"/>
      <point x="204" y="660" type="curve"/>
      <point x="226" y="665"/>
      <point x="255" y="666"/>
      <point x="285" y="666" type="curve"/>
      <point x="408" y="666"/>
      <point x="484" y="608"/>
      <point x="484" y="499" type="curve"/>
      <point x="484" y="391"/>
      <point x="395" y="308"/>
      <point x="247" y="286" type="curve"/>
      <point x="255" y="262" type="line"/>
      <point x="442" y="284"/>
      <point x="600" y="357"/>
      <point x="600" y="501" type="curve"/>
      <point x="600" y="617"/>
      <point x="506" y="699"/>
      <point x="354" y="698" type="curve"/>
      <point x="61" y="697" type="line"/>
      <point x="61" y="670" type="line"/>
      <point x="81" y="660"/>
      <point x="96" y="643"/>
      <point x="97" y="606" type="curve"/>
      <point x="102" y="430"/>
      <point x="104" y="242"/>
      <point x="96" y="65" type="curve"/>
      <point x="95" y="42"/>
      <point x="79" y="36"/>
      <point x="67" y="33" type="curve"/>
    </contour>
    <contour>
      <point x="305" y="25" type="move" name="bottom"/>
    </contour>
    <contour>
      <point x="305" y="722" type="move" name="top"/>
    </contour>
  </outline>
</glyph>
<glyph name="Q" format="1">
  <advance width="976"/>
  <unicode hex="0051"/>
  <outline>
    <contour>
      <point x="575" y="51" type="curve"/>
      <point x="440" y="5" type="line"/>
      <point x="499" y="-46"/>
      <point x="565" y="-116"/>
      <point x="721" y="-116" type="curve"/>
      <point x="801" y="-116"/>
      <point x="879" y="-88"/>
      <point x="971" y="-38" type="curve"/>
      <point x="958" y="-17" type="line"/>
      <point x="861" y="-53"/>
      <point x="815" y="-64"/>
      <point x="764" y="-64" type="curve"/>
      <point x="676" y="-64"/>
      <point x="612" y="-27"/>
    </contour>
    <contour>
      <point x="464" y="-7" type="curve"/>
      <point x="688" y="-7"/>
      <point x="857" y="138"/>
      <point x="857" y="361" type="curve"/>
      <point x="857" y="575"/>
      <point x="688" y="708"/>
      <point x="464" y="708" type="curve"/>
      <point x="233" y="708"/>
      <point x="73" y="545"/>
      <point x="73" y="342" type="curve"/>
      <point x="73" y="131"/>
      <point x="239" y="-7"/>
    </contour>
    <contour>
      <point x="745" y="342" type="curve"/>
      <point x="745" y="179"/>
      <point x="629" y="47"/>
      <point x="479" y="47" type="curve"/>
      <point x="307" y="47"/>
      <point x="186" y="183"/>
      <point x="186" y="363" type="curve"/>
      <point x="186" y="525"/>
      <point x="297" y="659"/>
      <point x="449" y="659" type="curve"/>
      <point x="618" y="659"/>
      <point x="745" y="513"/>
    </contour>
  </outline>
</glyph>
<glyph name="T" format="1">
  <advance width="742"/>
  <unicode hex="0054"/>
  <outline>
    <contour>
      <point x="41" y="722" type="line"/>
      <point x="5" y="562" type="line"/>
      <point x="35" y="557" type="line"/>
      <point x="55" y="612" type="line" smooth="yes"/>
      <point x="65" y="639"/>
      <point x="86" y="644"/>
      <point x="112" y="645" type="curve"/>
      <point x="317" y="651" type="line"/>
      <point x="318" y="471"/>
      <point x="320" y="256"/>
      <point x="312" y="66" type="curve"/>
      <point x="311" y="43"/>
      <point x="310" y="40"/>
      <point x="297" y="39" type="curve"/>
      <point x="208" y="30" type="line"/>
      <point x="208" y="0" type="line"/>
      <point x="541" y="0" type="line"/>
      <point x="541" y="30" type="line"/>
      <point x="445" y="39" type="line" smooth="yes"/>
      <point x="432" y="40"/>
      <point x="433" y="43"/>
      <point x="432" y="66" type="curve"/>
      <point x="424" y="256"/>
      <point x="427" y="471"/>
      <point x="427" y="651" type="curve"/>
      <point x="636" y="645" type="line" smooth="yes"/>
      <point x="662" y="644"/>
      <point x="686" y="639"/>
      <point x="694" y="612" type="curve"/>
      <point x="711" y="557" type="line"/>
      <point x="737" y="557" type="line"/>
      <point x="724" y="722" type="line"/>
      <point x="697" y="722" type="line"/>
      <point x="690" y="707"/>
      <point x="677" y="700"/>
      <point x="646" y="700" type="curve"/>
      <point x="108" y="700" type="line" smooth="yes"/>
      <point x="88" y="700"/>
      <point x="75" y="707"/>
      <point x="67" y="722" type="curve"/>
    </contour>
    <contour>
      <point x="365" y="25" type="move" name="bottom"/>
    </contour>
    <contour>
      <point x="365" y="373" type="move" name="center"/>
    </contour>
    <contour>
      <point x="365" y="722" type="move" name="top"/>
    </contour>
  </outline>
</glyph>
<glyph name="U" format="1">
  <advance width="846"/>
  <unicode hex="0055"/>
  <outline>
    <contour>
      <point x="435" y="45" type="curve"/>
      <point x="566" y="45"/>
      <point x="647" y="126"/>
      <point x="647" y="250" type="curve"/>
      <point x="648" y="643" type="line" smooth="yes"/>
      <point x="648" y="662"/>
      <point x="647" y="665"/>
      <point x="631" y="666" type="curve"/>
      <point x="537" y="674" type="line"/>
      <point x="537" y="699" type="line"/>
      <point x="796" y="699" type="line"/>
      <point x="796" y="674" type="line"/>
      <point x="756" y="666" type="line" smooth="yes"/>
      <point x="733" y="661"/>
      <point x="722" y="642"/>
      <point x="722" y="621" type="curve"/>
      <point x="715" y="299" type="line" smooth="yes"/>
      <point x="711" y="105"/>
      <point x="626" y="-11"/>
      <point x="433" y="-11" type="curve"/>
      <point x="204" y="-11"/>
      <point x="112" y="93"/>
      <point x="110" y="299" type="curve"/>
      <point x="107" y="636" type="line" smooth="yes"/>
      <point x="107" y="665"/>
      <point x="108" y="664"/>
      <point x="89" y="667" type="curve"/>
      <point x="40" y="674" type="line"/>
      <point x="40" y="699" type="line"/>
      <point x="299" y="699" type="line"/>
      <point x="299" y="674" type="line"/>
      <point x="259" y="668" type="line" smooth="yes"/>
      <point x="238" y="665"/>
      <point x="219" y="646"/>
      <point x="219" y="611" type="curve"/>
      <point x="219" y="250" type="line" smooth="yes"/>
      <point x="219" y="103"/>
      <point x="305" y="45"/>
    </contour>
  </outline>
</glyph>
<glyph name="V" format="1">
  <advance width="768"/>
  <unicode hex="0056"/>
  <outline>
    <contour>
      <point x="763" y="672" type="curve"/>
      <point x="763" y="700" type="line"/>
      <point x="556" y="700" type="line"/>
      <point x="556" y="672" type="line"/>
      <point x="634" y="668" type="line" smooth="yes"/>
      <point x="662" y="667"/>
      <point x="678" y="661"/>
      <point x="667" y="639" type="curve"/>
      <point x="425" y="143" type="line"/>
      <point x="177" y="641" type="line" smooth="yes"/>
      <point x="169" y="657"/>
      <point x="179" y="667"/>
      <point x="200" y="668" type="curve"/>
      <point x="273" y="672" type="line"/>
      <point x="273" y="700" type="line"/>
      <point x="5" y="700" type="line"/>
      <point x="5" y="675" type="line"/>
      <point x="26" y="672"/>
      <point x="39" y="660"/>
      <point x="47" y="644" type="curve"/>
      <point x="370" y="-11" type="line"/>
      <point x="402" y="-11" type="line"/>
      <point x="728" y="632" type="line" smooth="yes"/>
      <point x="737" y="649"/>
      <point x="743" y="662"/>
    </contour>
    <contour>
      <point x="384" y="25" type="move" name="bottom"/>
    </contour>
    <contour>
      <point x="384" y="722" type="move" name="top"/>
    </contour>
  </outline>
</glyph>
<glyph name="W" format="1">
  <advance width="1035"/>
  <unicode hex="0057"/>
  <outline>
    <contour>
      <point x="5" y="700" type="line"/>
      <point x="5" y="667" type="line"/>
      <point x="26" y="665"/>
      <point x="41" y="655"/>
      <point x="47" y="639" type="curve"/>
      <point x="290" y="-11" type="line"/>
      <point x="327" y="-11" type="line"/>
      <point x="525" y="505" type="line"/>
      <point x="724" y="-11" type="line"/>
      <point x="761" y="-11" type="line"/>
      <point x="995" y="627" type="line" smooth="yes"/>
      <point x="1001" y="644"/>
      <point x="1011" y="657"/>
      <point x="1030" y="667" type="curve"/>
      <point x="1030" y="700" type="line"/>
      <point x="831" y="700" type="line"/>
      <point x="831" y="667" type="line"/>
      <point x="901" y="663" type="line" smooth="yes"/>
      <point x="929" y="661"/>
      <point x="943" y="656"/>
      <point x="935" y="634" type="curve"/>
      <point x="769" y="167" type="line"/>
      <point x="569" y="700" type="line"/>
      <point x="532" y="700" type="line"/>
      <point x="339" y="167" type="line"/>
      <point x="167" y="636" type="line" smooth="yes"/>
      <point x="161" y="652"/>
      <point x="169" y="662"/>
      <point x="191" y="663" type="curve"/>
      <point x="259" y="667" type="line"/>
      <point x="259" y="700" type="line"/>
    </contour>
  </outline>
</glyph>
<glyph name="X" format="1">
  <advance width="674"/>
  <unicode hex="0058"/>
  <outline>
    <contour>
      <point x="500" y="598" type="curve"/>
      <point x="336" y="379" type="line"/>
      <point x="365" y="351" type="line"/>
      <point x="582" y="611" type="line" smooth="yes"/>
      <point x="606" y="639"/>
      <point x="630" y="652"/>
      <point x="648" y="661" type="curve"/>
      <point x="669" y="672" type="line"/>
      <point x="669" y="700" type="line"/>
      <point x="450" y="700" type="line"/>
      <point x="450" y="675" type="line"/>
      <point x="475" y="669" type="line" smooth="yes"/>
      <point x="511" y="660"/>
      <point x="536" y="646"/>
    </contour>
    <contour>
      <point x="132" y="65" type="curve"/>
      <point x="330" y="333" type="line"/>
      <point x="302" y="363" type="line"/>
      <point x="49" y="71" type="line" smooth="yes"/>
      <point x="37" y="57"/>
      <point x="24" y="44"/>
      <point x="5" y="31" type="curve"/>
      <point x="5" y="0" type="line"/>
      <point x="173" y="0" type="line"/>
      <point x="173" y="28" type="line"/>
      <point x="134" y="39"/>
      <point x="118" y="46"/>
    </contour>
    <contour>
      <point x="68" y="620" type="curve"/>
      <point x="469" y="75" type="line" smooth="yes"/>
      <point x="488" y="49"/>
      <point x="476" y="42"/>
      <point x="454" y="34" type="curve"/>
      <point x="428" y="24" type="line"/>
      <point x="428" y="0" type="line"/>
      <point x="668" y="0" type="line"/>
      <point x="668" y="27" type="line"/>
      <point x="655" y="30"/>
      <point x="630" y="50"/>
      <point x="614" y="71" type="curve"/>
      <point x="198" y="626" type="line" smooth="yes"/>
      <point x="184" y="645"/>
      <point x="193" y="661"/>
      <point x="208" y="665" type="curve"/>
      <point x="243" y="675" type="line"/>
      <point x="243" y="700" type="line"/>
      <point x="5" y="700" type="line"/>
      <point x="5" y="672" type="line"/>
      <point x="24" y="666"/>
      <point x="46" y="649"/>
    </contour>
    <contour>
      <point x="337" y="25" type="move" name="bottom"/>
    </contour>
    <contour>
      <point x="337" y="722" type="move" name="top"/>
    </contour>
  </outline>
</glyph>
<glyph name="a" format="1">
  <advance width="352"/>
  <unicode hex="0061"/>
  <outline>
    <contour>
      <point x="208" y="49" type="curve"/>
      <point x="203" y="91" type="line"/>
      <point x="207" y="70"/>
      <point x="174" y="46"/>
      <point x="148" y="46" type="curve"/>
      <point x="120" y="46"/>
      <point x="101" y="60"/>
      <point x="101" y="92" type="curve"/>
      <point x="101" y="124"/>
      <point x="109" y="138"/>
      <point x="208" y="191" type="curve"/>
      <point x="204" y="221" type="line"/>
      <point x="99" y="157" type="line" smooth="yes"/>
      <point x="57" y="132"/>
      <point x="28" y="118"/>
      <point x="29" y="69" type="curve"/>
      <point x="30" y="19"/>
      <point x="63" y="-10"/>
      <point x="104" y="-10" type="curve"/>
      <point x="123" y="-10"/>
      <point x="166" y="20"/>
    </contour>
    <contour>
      <point x="199" y="64" type="curve"/>
      <point x="205" y="54" type="line"/>
      <point x="220" y="-8" type="line"/>
      <point x="226" y="-11" type="line"/>
      <point x="328" y="28" type="line"/>
      <point x="328" y="52" type="line"/>
      <point x="298" y="49"/>
      <point x="280" y="54"/>
      <point x="281" y="80" type="curve"/>
      <point x="283" y="144"/>
      <point x="286" y="220"/>
      <point x="286" y="283" type="curve"/>
      <point x="286" y="377"/>
      <point x="243" y="400"/>
      <point x="167" y="400" type="curve"/>
      <point x="102" y="400"/>
      <point x="37" y="354"/>
      <point x="37" y="332" type="curve"/>
      <point x="37" y="322"/>
      <point x="50" y="309"/>
      <point x="66" y="309" type="curve"/>
      <point x="86" y="309"/>
      <point x="84" y="319"/>
      <point x="97" y="339" type="curve"/>
      <point x="104" y="350"/>
      <point x="118" y="359"/>
      <point x="137" y="359" type="curve"/>
      <point x="176" y="359"/>
      <point x="207" y="329"/>
      <point x="205" y="269" type="curve"/>
      <point x="203" y="198"/>
      <point x="201" y="132"/>
    </contour>
    <contour>
      <point x="176" y="25" type="move" name="bottom"/>
    </contour>
    <contour>
      <point x="316" y="34" type="move" name="ogonek"/>
    </contour>
    <contour>
      <point x="176" y="397" type="move" name="top"/>
    </contour>
  </outline>
</glyph>
<glyph name="b" format="1">
  <advance width="496"/>
  <unicode hex="0062"/>
  <outline>
    <contour>
      <point x="154" y="333" type="curve"/>
      <point x="164" y="302" type="line"/>
      <point x="194" y="322"/>
      <point x="234" y="333"/>
      <point x="271" y="333" type="curve"/>
      <point x="344" y="333"/>
      <point x="405" y="275"/>
      <point x="405" y="191" type="curve"/>
      <point x="405" y="122"/>
      <point x="364" y="64"/>
      <point x="316" y="51" type="curve"/>
      <point x="276" y="51"/>
      <point x="199" y="60"/>
      <point x="178" y="76" type="curve"/>
      <point x="155" y="144"/>
      <point x="150" y="247"/>
      <point x="174" y="321" type="curve"/>
      <point x="160" y="337" type="line"/>
      <point x="162" y="539" type="line" smooth="yes"/>
      <point x="162" y="577"/>
      <point x="166" y="649"/>
      <point x="170" y="696" type="curve"/>
      <point x="149" y="709" type="line"/>
      <point x="111" y="680"/>
      <point x="61" y="649"/>
      <point x="10" y="626" type="curve"/>
      <point x="10" y="598" type="line"/>
      <point x="62" y="598"/>
      <point x="76" y="567"/>
      <point x="78" y="526" type="curve"/>
      <point x="86" y="360"/>
      <point x="83" y="175"/>
      <point x="74" y="3" type="curve"/>
      <point x="135" y="-2"/>
      <point x="201" y="-10"/>
      <point x="262" y="-10" type="curve"/>
      <point x="348" y="10"/>
      <point x="471" y="96"/>
      <point x="471" y="218" type="curve"/>
      <point x="471" y="342"/>
      <point x="402" y="400"/>
      <point x="288" y="400" type="curve"/>
      <point x="267" y="400"/>
      <point x="187" y="351"/>
    </contour>
    <contour>
      <point x="250" y="25" type="move" name="bottom"/>
    </contour>
    <contour>
      <point x="250" y="397" type="move" name="top"/>
    </contour>
  </outline>
</glyph>
<glyph name="c" format="1">
  <advance width="338"/>
  <unicode hex="0063"/>
  <outline>
    <contour>
      <point x="99" y="206" type="curve"/>
      <point x="99" y="312"/>
      <point x="144" y="339"/>
      <point x="195" y="339" type="curve"/>
      <point x="230" y="339"/>
      <point x="256" y="330"/>
      <point x="271" y="324" type="curve"/>
      <point x="322" y="379" type="line"/>
      <point x="323" y="388" type="line"/>
      <point x="312" y="393"/>
      <point x="284" y="398"/>
      <point x="249" y="398" type="curve"/>
      <point x="170" y="398"/>
      <point x="82" y="332"/>
      <point x="58" y="298" type="curve"/>
      <point x="34" y="263"/>
      <point x="25" y="222"/>
      <point x="25" y="175" type="curve"/>
      <point x="25" y="71"/>
      <point x="71" y="-9"/>
      <point x="205" y="-9" type="curve"/>
      <point x="256" y="-9"/>
      <point x="294" y="13"/>
      <point x="335" y="43" type="curve"/>
      <point x="331" y="62" type="line"/>
      <point x="303" y="54"/>
      <point x="274" y="49"/>
      <point x="243" y="49" type="curve"/>
      <point x="125" y="49"/>
      <point x="99" y="141"/>
    </contour>
    <contour>
      <point x="588" y="879" type="move"/>
    </contour>
    <contour>
      <point x="167" y="25" type="move" name="bottom"/>
    </contour>
    <contour>
      <point x="167" y="397" type="move" name="top"/>
    </contour>
  </outline>
</glyph>
<glyph name="e" format="1">
  <advance width="354"/>
  <unicode hex="0065"/>
  <outline>
    <contour>
      <point x="236" y="52" type="curve"/>
      <point x="137" y="52"/>
      <point x="84" y="134"/>
      <point x="87" y="227" type="curve"/>
      <point x="89" y="306"/>
      <point x="112" y="351"/>
      <point x="152" y="351" type="curve"/>
      <point x="184" y="351"/>
      <point x="227" y="308"/>
      <point x="237" y="277" type="curve"/>
      <point x="84" y="212" type="line"/>
      <point x="84" y="181" type="line"/>
      <point x="341" y="289" type="line"/>
      <point x="341" y="303" type="line"/>
      <point x="309" y="324"/>
      <point x="261" y="400"/>
      <point x="191" y="400" type="curve"/>
      <point x="147" y="400"/>
      <point x="79" y="353"/>
      <point x="62" y="339" type="curve"/>
      <point x="34" y="306"/>
      <point x="19" y="264"/>
      <point x="19" y="188" type="curve"/>
      <point x="19" y="106"/>
      <point x="51" y="-10"/>
      <point x="201" y="-10" type="curve"/>
      <point x="256" y="-10"/>
      <point x="313" y="34"/>
      <point x="344" y="56" type="curve"/>
      <point x="337" y="76" type="line"/>
      <point x="303" y="59"/>
      <point x="262" y="52"/>
    </contour>
    <contour>
      <point x="584" y="879" type="move"/>
    </contour>
    <contour>
      <point x="184" y="35" type="move" name="bottom"/>
    </contour>
    <contour>
      <point x="327" y="34" type="move" name="ogonek"/>
    </contour>
    <contour>
      <point x="182" y="397" type="move" name="top"/>
    </contour>
  </outline>
</glyph>
<glyph name="f" format="1">
  <advance width="278"/>
  <unicode hex="0066"/>
  <outline>
    <contour>
      <point x="19" y="25" type="line"/>
      <point x="19" y="0" type="line"/>
      <point x="254" y="0" type="line"/>
      <point x="254" y="25" type="line"/>
      <point x="190" y="32" type="line" smooth="yes"/>
      <point x="176" y="34"/>
      <point x="170" y="42"/>
      <point x="170" y="56" type="curve"/>
      <point x="171" y="328" type="line"/>
      <point x="264" y="328" type="line"/>
      <point x="267" y="372" type="line"/>
      <point x="171" y="372" type="line"/>
      <point x="171" y="461"/>
      <point x="170" y="602"/>
      <point x="191" y="629" type="curve"/>
      <point x="205" y="647"/>
      <point x="230" y="660"/>
      <point x="262" y="660" type="curve"/>
      <point x="301" y="660"/>
      <point x="339" y="645"/>
      <point x="369" y="627" type="curve"/>
      <point x="387" y="645"/>
      <point x="404" y="663"/>
      <point x="404" y="676" type="curve"/>
      <point x="392" y="703"/>
      <point x="338" y="710"/>
      <point x="312" y="710" type="curve"/>
      <point x="254" y="710"/>
      <point x="193" y="663"/>
      <point x="161" y="633" type="curve"/>
      <point x="133" y="606"/>
      <point x="116" y="581"/>
      <point x="113" y="572" type="curve"/>
      <point x="96" y="521"/>
      <point x="94" y="437"/>
      <point x="92" y="372" type="curve"/>
      <point x="27" y="372" type="line"/>
      <point x="27" y="328" type="line"/>
      <point x="91" y="328" type="line"/>
      <point x="90" y="56" type="line" smooth="yes"/>
      <point x="90" y="42"/>
      <point x="82" y="34"/>
      <point x="68" y="32" type="curve"/>
    </contour>
    <contour>
      <point x="138" y="25" type="move" name="bottom"/>
    </contour>
    <contour>
      <point x="138" y="397" type="move" name="top"/>
    </contour>
  </outline>
</glyph>
<glyph name="g" format="1">
  <advance width="523"/>
  <unicode hex="0067"/>
  <outline>
    <contour>
      <point x="39" y="231" type="curve"/>
      <point x="39" y="152"/>
      <point x="106" y="91"/>
      <point x="210" y="90" type="curve"/>
      <point x="343" y="89"/>
      <point x="428" y="147"/>
      <point x="428" y="256" type="curve"/>
      <point x="428" y="292"/>
      <point x="409" y="321"/>
      <point x="391" y="348" type="curve"/>
      <point x="501" y="348" type="line"/>
      <point x="501" y="393" type="line"/>
      <point x="389" y="393"/>
      <point x="321" y="400"/>
      <point x="249" y="400" type="curve"/>
      <point x="121" y="400"/>
      <point x="39" y="334"/>
    </contour>
    <contour>
      <point x="240" y="94" type="curve"/>
      <point x="180" y="102" type="line"/>
      <point x="128" y="68"/>
      <point x="55" y="38"/>
      <point x="55" y="26" type="curve"/>
      <point x="55" y="10"/>
      <point x="65" y="-19"/>
      <point x="70" y="-23" type="curve"/>
      <point x="97" y="-45"/>
      <point x="237" y="-48"/>
      <point x="320" y="-63" type="curve"/>
      <point x="402" y="-78"/>
      <point x="467" y="-97"/>
      <point x="467" y="-167" type="curve"/>
      <point x="467" y="-237"/>
      <point x="378" y="-276"/>
      <point x="305" y="-276" type="curve"/>
      <point x="172" y="-276"/>
      <point x="126" y="-217"/>
      <point x="126" y="-153" type="curve"/>
      <point x="126" y="-112"/>
      <point x="173" y="-62"/>
      <point x="214" y="-43" type="curve"/>
      <point x="179" y="-33" type="line"/>
      <point x="120" y="-64"/>
      <point x="42" y="-113"/>
      <point x="42" y="-190" type="curve"/>
      <point x="42" y="-272"/>
      <point x="134" y="-309"/>
      <point x="278" y="-309" type="curve"/>
      <point x="412" y="-309"/>
      <point x="535" y="-254"/>
      <point x="535" y="-138" type="curve"/>
      <point x="535" y="-45"/>
      <point x="472" y="-18"/>
      <point x="373" y="-1" type="curve"/>
      <point x="278" y="14"/>
      <point x="166" y="32"/>
      <point x="166" y="50" type="curve"/>
      <point x="166" y="59"/>
      <point x="202" y="83"/>
    </contour>
    <contour>
      <point x="342" y="235" type="curve"/>
      <point x="342" y="171"/>
      <point x="300" y="123"/>
      <point x="235" y="123" type="curve"/>
      <point x="176" y="123"/>
      <point x="125" y="172"/>
      <point x="125" y="242" type="curve"/>
      <point x="125" y="306"/>
      <point x="172" y="349"/>
      <point x="235" y="349" type="curve"/>
      <point x="300" y="349"/>
      <point x="342" y="307"/>
    </contour>
    <contour>
      <point x="267" y="-1" type="move" name="bottom"/>
    </contour>
    <contour>
      <point x="267" y="399" type="move" name="top"/>
    </contour>
  </outline>
</glyph>
<glyph name="h" format="1">
  <advance width="525"/>
  <unicode hex="0068"/>
  <outline>
    <contour>
      <point x="161" y="332" type="curve"/>
      <point x="160" y="286" type="line"/>
      <point x="186" y="317"/>
      <point x="221" y="346"/>
      <point x="269" y="346" type="curve"/>
      <point x="355" y="346"/>
      <point x="432" y="274"/>
      <point x="432" y="178" type="curve"/>
      <point x="432" y="106"/>
      <point x="395" y="51"/>
      <point x="374" y="51" type="curve"/>
      <point x="367" y="51"/>
      <point x="358" y="55"/>
      <point x="352" y="55" type="curve"/>
      <point x="346" y="55"/>
      <point x="305" y="32"/>
      <point x="305" y="14" type="curve"/>
      <point x="305" y="-4"/>
      <point x="318" y="-14"/>
      <point x="336" y="-14" type="curve"/>
      <point x="385" y="-14"/>
      <point x="500" y="109"/>
      <point x="500" y="200" type="curve"/>
      <point x="500" y="342"/>
      <point x="401" y="422"/>
      <point x="238" y="388" type="curve"/>
      <point x="224" y="379"/>
      <point x="171" y="337"/>
    </contour>
    <contour>
      <point x="171" y="61" type="curve"/>
      <point x="170" y="547" type="line" smooth="yes"/>
      <point x="170" y="585"/>
      <point x="169" y="650"/>
      <point x="174" y="697" type="curve"/>
      <point x="153" y="708" type="line"/>
      <point x="118" y="678"/>
      <point x="73" y="644"/>
      <point x="20" y="616" type="curve"/>
      <point x="20" y="588" type="line"/>
      <point x="72" y="588"/>
      <point x="89" y="566"/>
      <point x="92" y="502" type="curve"/>
      <point x="95" y="440"/>
      <point x="93" y="172"/>
      <point x="88" y="66" type="curve"/>
      <point x="87" y="46"/>
      <point x="81" y="36"/>
      <point x="62" y="31" type="curve"/>
      <point x="41" y="25" type="line"/>
      <point x="41" y="0" type="line"/>
      <point x="228" y="-1" type="line"/>
      <point x="228" y="26" type="line"/>
      <point x="200" y="28" type="line" smooth="yes"/>
      <point x="179" y="30"/>
      <point x="171" y="45"/>
    </contour>
    <contour>
      <point x="267" y="25" type="move" name="bottom"/>
    </contour>
    <contour>
      <point x="267" y="211" type="move" name="center"/>
    </contour>
    <contour>
      <point x="267" y="397" type="move" name="top"/>
    </contour>
  </outline>
</glyph>
<glyph name="i" format="1">
  <advance width="210"/>
  <unicode hex="0069"/>
  <outline>
    <contour>
      <point x="113" y="668" type="curve"/>
      <point x="89" y="665"/>
      <point x="75" y="648"/>
      <point x="78" y="629" type="curve"/>
      <point x="81" y="609"/>
      <point x="98" y="595"/>
      <point x="123" y="600" type="curve"/>
      <point x="145" y="604"/>
      <point x="158" y="619"/>
      <point x="155" y="640" type="curve"/>
      <point x="152" y="659"/>
      <point x="136" y="671"/>
    </contour>
    <contour>
      <point x="147" y="56" type="curve"/>
      <point x="147" y="154"/>
      <point x="142" y="293"/>
      <point x="156" y="390" type="curve"/>
      <point x="144" y="401" type="line"/>
      <point x="114" y="390"/>
      <point x="48" y="373"/>
      <point x="15" y="360" type="curve"/>
      <point x="15" y="335" type="line"/>
      <point x="46" y="333"/>
      <point x="65" y="327"/>
      <point x="66" y="285" type="curve"/>
      <point x="67" y="231"/>
      <point x="71" y="82"/>
      <point x="55" y="1" type="curve"/>
      <point x="57" y="-12" type="line"/>
      <point x="100" y="-7"/>
      <point x="143" y="-3"/>
      <point x="205" y="0" type="curve"/>
      <point x="205" y="25" type="line"/>
      <point x="156" y="29"/>
      <point x="147" y="30"/>
    </contour>
    <contour>
      <point x="107" y="25" type="move" name="bottom"/>
    </contour>
  </outline>
</glyph>
<glyph name="j" format="1">
  <advance width="200"/>
  <unicode hex="006A"/>
  <outline>
    <contour>
      <point x="15" y="-246" type="curve"/>
      <point x="36" y="-256" type="line"/>
      <point x="107" y="-132"/>
      <point x="157" y="-36"/>
      <point x="157" y="20" type="curve"/>
      <point x="157" y="140"/>
      <point x="153" y="337"/>
      <point x="170" y="389" type="curve"/>
      <point x="156" y="400" type="line"/>
      <point x="103" y="385"/>
      <point x="71" y="373"/>
      <point x="24" y="362" type="curve"/>
      <point x="24" y="336" type="line"/>
      <point x="68" y="332"/>
      <point x="72" y="315"/>
      <point x="72" y="264" type="curve"/>
      <point x="72" y="187"/>
      <point x="73" y="118"/>
      <point x="73" y="30" type="curve"/>
      <point x="73" y="-84"/>
      <point x="56" y="-130"/>
    </contour>
    <contour>
      <point x="99" y="665" type="curve"/>
      <point x="73" y="662"/>
      <point x="58" y="643"/>
      <point x="61" y="622" type="curve"/>
      <point x="64" y="600"/>
      <point x="83" y="586"/>
      <point x="110" y="590" type="curve"/>
      <point x="135" y="594"/>
      <point x="149" y="611"/>
      <point x="145" y="634" type="curve"/>
      <point x="141" y="655"/>
      <point x="125" y="668"/>
    </contour>
  </outline>
</glyph>
<glyph name="k" format="1">
  <advance width="455"/>
  <unicode hex="006B"/>
  <outline>
    <contour>
      <point x="396" y="102" type="curve"/>
      <point x="239" y="256" type="line"/>
      <point x="156" y="181" type="line"/>
      <point x="177" y="187" type="line" smooth="yes"/>
      <point x="222" y="200"/>
      <point x="344" y="40"/>
      <point x="371" y="-14" type="curve"/>
      <point x="377" y="-15" type="line"/>
      <point x="457" y="53" type="line"/>
      <point x="447" y="74" type="line"/>
      <point x="430" y="77"/>
      <point x="412" y="86"/>
    </contour>
    <contour>
      <point x="177" y="0" type="curve"/>
      <point x="177" y="28" type="line"/>
      <point x="156" y="91"/>
      <point x="162" y="398"/>
      <point x="165" y="537" type="curve"/>
      <point x="166" y="578"/>
      <point x="170" y="653"/>
      <point x="174" y="700" type="curve"/>
      <point x="153" y="710" type="line"/>
      <point x="107" y="676"/>
      <point x="66" y="648"/>
      <point x="20" y="627" type="curve"/>
      <point x="20" y="600" type="line"/>
      <point x="72" y="600"/>
      <point x="77" y="581"/>
      <point x="79" y="537" type="curve"/>
      <point x="85" y="399"/>
      <point x="88" y="226"/>
      <point x="84" y="77" type="curve"/>
      <point x="83" y="52"/>
      <point x="77" y="30"/>
      <point x="61" y="11" type="curve"/>
      <point x="61" y="-14" type="line"/>
      <point x="103" y="-8"/>
      <point x="133" y="-3"/>
    </contour>
    <contour>
      <point x="151" y="206" type="line"/>
      <point x="156" y="181" type="line"/>
      <point x="344" y="312" type="line" smooth="yes"/>
      <point x="360" y="323"/>
      <point x="388" y="344"/>
      <point x="408" y="347" type="curve"/>
      <point x="408" y="372" type="line"/>
      <point x="257" y="372" type="line"/>
      <point x="257" y="346" type="line"/>
      <point x="287" y="333"/>
      <point x="276" y="309"/>
      <point x="258" y="294" type="curve"/>
    </contour>
  </outline>
</glyph>
<glyph name="l" format="1">
  <advance width="235"/>
  <unicode hex="006C"/>
  <outline>
    <contour>
      <point x="227" y="1" type="curve"/>
      <point x="227" y="29" type="line"/>
      <point x="185" y="31"/>
      <point x="166" y="30"/>
      <point x="165" y="63" type="curve"/>
      <point x="163" y="153"/>
      <point x="162" y="427"/>
      <point x="164" y="572" type="curve"/>
      <point x="165" y="634"/>
      <point x="167" y="644"/>
      <point x="174" y="701" type="curve"/>
      <point x="161" y="710" type="line"/>
      <point x="115" y="679"/>
      <point x="60" y="648"/>
      <point x="20" y="630" type="curve"/>
      <point x="23" y="603" type="line"/>
      <point x="76" y="608"/>
      <point x="78" y="601"/>
      <point x="80" y="553" type="curve"/>
      <point x="85" y="411"/>
      <point x="86" y="200"/>
      <point x="82" y="57" type="curve"/>
      <point x="81" y="21"/>
      <point x="75" y="22"/>
      <point x="45" y="9" type="curve"/>
      <point x="45" y="-16" type="line"/>
      <point x="95" y="-10"/>
      <point x="161" y="2"/>
    </contour>
    <contour>
      <point x="119" y="25" type="move" name="bottom"/>
    </contour>
    <contour>
      <point x="119" y="211" type="move" name="center"/>
    </contour>
    <contour>
      <point x="119" y="397" type="move" name="top"/>
    </contour>
    <contour>
      <point x="216" y="397" type="move" name="topright"/>
    </contour>
  </outline>
</glyph>
<glyph name="m" format="1">
  <advance width="794"/>
  <unicode hex="006D"/>
  <outline>
    <contour>
      <point x="23" y="356" type="curve"/>
      <point x="23" y="328" type="line"/>
      <point x="68" y="328"/>
      <point x="82" y="306"/>
      <point x="82" y="275" type="curve"/>
      <point x="82" y="160" type="line" smooth="yes"/>
      <point x="82" y="36"/>
      <point x="80" y="37"/>
      <point x="49" y="30" type="curve"/>
      <point x="30" y="26" type="line"/>
      <point x="30" y="-1" type="line"/>
      <point x="200" y="-1" type="line"/>
      <point x="200" y="22" type="line"/>
      <point x="173" y="34"/>
      <point x="166" y="38"/>
      <point x="166" y="90" type="curve"/>
      <point x="166" y="293" type="line"/>
      <point x="191" y="323"/>
      <point x="217" y="342"/>
      <point x="259" y="342" type="curve"/>
      <point x="318" y="342"/>
      <point x="349" y="302"/>
      <point x="349" y="236" type="curve"/>
      <point x="349" y="92" type="line" smooth="yes"/>
      <point x="349" y="30"/>
      <point x="347" y="33"/>
      <point x="290" y="27" type="curve"/>
      <point x="290" y="0" type="line"/>
      <point x="491" y="0" type="line"/>
      <point x="491" y="27" type="line"/>
      <point x="431" y="30"/>
      <point x="433" y="27"/>
      <point x="433" y="92" type="curve"/>
      <point x="433" y="285" type="line"/>
      <point x="469" y="330"/>
      <point x="503" y="342"/>
      <point x="529" y="342" type="curve"/>
      <point x="595" y="342"/>
      <point x="629" y="313"/>
      <point x="629" y="186" type="curve"/>
      <point x="629" y="64"/>
      <point x="620" y="44"/>
      <point x="575" y="23" type="curve"/>
      <point x="575" y="0" type="line"/>
      <point x="766" y="0" type="line"/>
      <point x="766" y="29" type="line"/>
      <point x="710" y="31"/>
      <point x="703" y="34"/>
      <point x="703" y="84" type="curve"/>
      <point x="703" y="131"/>
      <point x="707" y="195"/>
      <point x="706" y="262" type="curve"/>
      <point x="705" y="350"/>
      <point x="670" y="400"/>
      <point x="573" y="400" type="curve"/>
      <point x="516" y="400"/>
      <point x="458" y="360"/>
      <point x="430" y="320" type="curve"/>
      <point x="416" y="371"/>
      <point x="379" y="400"/>
      <point x="303" y="400" type="curve"/>
      <point x="246" y="400"/>
      <point x="193" y="363"/>
      <point x="166" y="328" type="curve"/>
      <point x="164" y="400" type="line"/>
      <point x="142" y="411" type="line"/>
      <point x="102" y="392"/>
      <point x="63" y="371"/>
    </contour>
    <contour>
      <point x="397" y="25" type="move" name="bottom"/>
    </contour>
    <contour>
      <point x="397" y="397" type="move" name="top"/>
    </contour>
  </outline>
</glyph>
<glyph name="n" format="1">
  <advance width="504"/>
  <unicode hex="006E"/>
  <outline>
    <contour>
      <point x="136" y="322" type="curve"/>
      <point x="134" y="271" type="line"/>
      <point x="177" y="318"/>
      <point x="213" y="342"/>
      <point x="262" y="342" type="curve"/>
      <point x="322" y="342"/>
      <point x="354" y="305"/>
      <point x="354" y="214" type="curve"/>
      <point x="354" y="87"/>
      <point x="353" y="34"/>
      <point x="314" y="16" type="curve"/>
      <point x="314" y="-10" type="line"/>
      <point x="365" y="-3"/>
      <point x="438" y="-2"/>
      <point x="499" y="2" type="curve"/>
      <point x="499" y="31" type="line"/>
      <point x="438" y="30"/>
      <point x="428" y="45"/>
      <point x="428" y="90" type="curve"/>
      <point x="428" y="118"/>
      <point x="431" y="201"/>
      <point x="433" y="269" type="curve"/>
      <point x="435" y="354"/>
      <point x="401" y="401"/>
      <point x="315" y="401" type="curve"/>
      <point x="251" y="401"/>
      <point x="170" y="345"/>
    </contour>
    <contour>
      <point x="154" y="105" type="curve"/>
      <point x="154" y="293" type="line"/>
      <point x="149" y="307" type="line"/>
      <point x="147" y="406" type="line"/>
      <point x="135" y="414" type="line"/>
      <point x="95" y="389"/>
      <point x="55" y="363"/>
      <point x="15" y="346" type="curve"/>
      <point x="15" y="322" type="line"/>
      <point x="63" y="328"/>
      <point x="74" y="326"/>
      <point x="74" y="285" type="curve"/>
      <point x="74" y="81" type="line" smooth="yes"/>
      <point x="74" y="31"/>
      <point x="75" y="30"/>
      <point x="27" y="22" type="curve"/>
      <point x="27" y="-3" type="line"/>
      <point x="80" y="1"/>
      <point x="133" y="0"/>
      <point x="188" y="0" type="curve"/>
      <point x="188" y="22" type="line"/>
      <point x="158" y="36"/>
      <point x="154" y="33"/>
    </contour>
    <contour>
      <point x="247" y="25" type="move" name="bottom"/>
    </contour>
    <contour>
      <point x="247" y="397" type="move" name="top"/>
    </contour>
  </outline>
</glyph>
<glyph name="o" format="1">
  <advance width="442"/>
  <unicode hex="006F"/>
  <outline>
    <contour>
      <point x="216" y="401" type="curve"/>
      <point x="125" y="401"/>
      <point x="25" y="304"/>
      <point x="25" y="192" type="curve"/>
      <point x="25" y="70"/>
      <point x="108" y="-10"/>
      <point x="224" y="-10" type="curve"/>
      <point x="306" y="-10"/>
      <point x="417" y="92"/>
      <point x="417" y="201" type="curve"/>
      <point x="417" y="328"/>
      <point x="332" y="401"/>
    </contour>
    <contour>
      <point x="184" y="346" type="curve"/>
      <point x="272" y="346"/>
      <point x="348" y="264"/>
      <point x="348" y="162" type="curve"/>
      <point x="348" y="94"/>
      <point x="313" y="47"/>
      <point x="255" y="47" type="curve"/>
      <point x="173" y="47"/>
      <point x="94" y="119"/>
      <point x="94" y="232" type="curve"/>
      <point x="94" y="299"/>
      <point x="128" y="346"/>
    </contour>
    <contour>
      <point x="217" y="95" type="move" name="bottom"/>
    </contour>
    <contour>
      <point x="217" y="281" type="move" name="center"/>
    </contour>
    <contour>
      <point x="392" y="104" type="move" name="ogonek"/>
    </contour>
    <contour>
      <point x="217" y="467" type="move" name="top"/>
    </contour>
    <contour>
      <point x="417" y="467" type="move" name="topright"/>
    </contour>
  </outline>
</glyph>
<glyph name="p" format="1">
  <advance width="493"/>
  <unicode hex="0070"/>
  <outline>
    <contour>
      <point x="19" y="319" type="curve"/>
      <point x="19" y="346" type="line"/>
      <point x="53" y="364"/>
      <point x="92" y="393"/>
      <point x="131" y="425" type="curve"/>
      <point x="153" y="412" type="line"/>
      <point x="153" y="346" type="line"/>
      <point x="182" y="365"/>
      <point x="244" y="399"/>
      <point x="263" y="399" type="curve"/>
      <point x="375" y="399"/>
      <point x="468" y="338"/>
      <point x="468" y="210" type="curve"/>
      <point x="468" y="72"/>
      <point x="344" y="0"/>
      <point x="242" y="0" type="curve"/>
      <point x="218" y="0"/>
      <point x="171" y="2"/>
      <point x="152" y="-9" type="curve"/>
      <point x="152" y="-243" type="line" smooth="yes"/>
      <point x="152" y="-259"/>
      <point x="159" y="-260"/>
      <point x="180" y="-263" type="curve"/>
      <point x="236" y="-272" type="line"/>
      <point x="236" y="-300" type="line"/>
      <point x="20" y="-300" type="line"/>
      <point x="20" y="-276" type="line"/>
      <point x="36" y="-271" type="line" smooth="yes"/>
      <point x="63" y="-263"/>
      <point x="67" y="-238"/>
      <point x="68" y="-206" type="curve"/>
      <point x="73" y="-47"/>
      <point x="72" y="96"/>
      <point x="68" y="255" type="curve"/>
      <point x="67" y="296"/>
      <point x="61" y="319"/>
    </contour>
    <contour>
      <point x="153" y="316" type="curve"/>
      <point x="152" y="46" type="line"/>
      <point x="175" y="41"/>
      <point x="196" y="38"/>
      <point x="236" y="38" type="curve"/>
      <point x="317" y="38"/>
      <point x="384" y="99"/>
      <point x="384" y="189" type="curve"/>
      <point x="384" y="283"/>
      <point x="317" y="336"/>
      <point x="242" y="336" type="curve"/>
      <point x="204" y="336"/>
      <point x="179" y="325"/>
    </contour>
    <contour>
      <point x="248" y="25" type="move" name="bottom"/>
    </contour>
    <contour>
      <point x="248" y="397" type="move" name="top"/>
    </contour>
  </outline>
</glyph>
<glyph name="q" format="1">
  <advance width="498"/>
  <unicode hex="0071"/>
  <outline>
    <contour>
      <point x="349" y="-221" type="curve"/>
      <point x="347" y="347" type="line"/>
      <point x="361" y="361" type="line"/>
      <point x="416" y="416" type="line"/>
      <point x="439" y="408" type="line"/>
      <point x="433" y="370"/>
      <point x="428" y="325"/>
      <point x="428" y="284" type="curve"/>
      <point x="428" y="-206" type="line" smooth="yes"/>
      <point x="428" y="-233"/>
      <point x="434" y="-256"/>
      <point x="460" y="-266" type="curve"/>
      <point x="476" y="-272" type="line"/>
      <point x="476" y="-300" type="line"/>
      <point x="273" y="-300" type="line"/>
      <point x="273" y="-272" type="line"/>
      <point x="320" y="-261" type="line" smooth="yes"/>
      <point x="341" y="-256"/>
      <point x="349" y="-256"/>
    </contour>
    <contour>
      <point x="221" y="400" type="curve"/>
      <point x="271" y="400"/>
      <point x="338" y="396"/>
      <point x="387" y="371" type="curve"/>
      <point x="387" y="120" type="line"/>
      <point x="348" y="79" type="line"/>
      <point x="303" y="43"/>
      <point x="237" y="-9"/>
      <point x="212" y="-9" type="curve"/>
      <point x="106" y="-9"/>
      <point x="25" y="49"/>
      <point x="25" y="176" type="curve"/>
      <point x="25" y="215"/>
      <point x="35" y="258"/>
      <point x="52" y="286" type="curve"/>
      <point x="69" y="315"/>
      <point x="200" y="400"/>
    </contour>
    <contour>
      <point x="94" y="202" type="curve"/>
      <point x="94" y="109"/>
      <point x="152" y="60"/>
      <point x="228" y="60" type="curve"/>
      <point x="277" y="60"/>
      <point x="319" y="88"/>
      <point x="348" y="125" type="curve"/>
      <point x="348" y="180" type="line" smooth="yes"/>
      <point x="348" y="270"/>
      <point x="306" y="345"/>
      <point x="226" y="345" type="curve"/>
      <point x="155" y="345"/>
      <point x="94" y="282"/>
    </contour>
    <contour>
      <point x="248" y="25" type="move" name="bottom"/>
    </contour>
    <contour>
      <point x="248" y="397" type="move" name="top"/>
    </contour>
  </outline>
</glyph>
<glyph name="r" format="1">
  <advance width="298"/>
  <unicode hex="0072"/>
  <outline>
    <contour>
      <point x="197" y="363" type="curve"/>
      <point x="140" y="300" type="line"/>
      <point x="144" y="253" type="line"/>
      <point x="175" y="300"/>
      <point x="198" y="324"/>
      <point x="223" y="324" type="curve"/>
      <point x="244" y="324"/>
      <point x="268" y="315"/>
      <point x="268" y="315" type="curve"/>
      <point x="308" y="385" type="line"/>
      <point x="308" y="390" type="line"/>
      <point x="244" y="410"/>
      <point x="228" y="398"/>
    </contour>
    <contour>
      <point x="154" y="77" type="curve"/>
      <point x="154" y="282" type="line"/>
      <point x="145" y="295" type="line"/>
      <point x="142" y="407" type="line"/>
      <point x="130" y="411" type="line"/>
      <point x="90" y="386"/>
      <point x="55" y="361"/>
      <point x="15" y="346" type="curve"/>
      <point x="15" y="318" type="line"/>
      <point x="60" y="318"/>
      <point x="74" y="296"/>
      <point x="74" y="265" type="curve"/>
      <point x="74" y="86" type="line" smooth="yes"/>
      <point x="74" y="38"/>
      <point x="74" y="32"/>
      <point x="45" y="19" type="curve"/>
      <point x="45" y="-5" type="line"/>
      <point x="86" y="-2"/>
      <point x="141" y="1"/>
      <point x="215" y="0" type="curve"/>
      <point x="215" y="27" type="line"/>
      <point x="151" y="35"/>
      <point x="154" y="32"/>
    </contour>
    <contour>
      <point x="143" y="25" type="move" name="bottom"/>
    </contour>
    <contour>
      <point x="143" y="397" type="move" name="top"/>
    </contour>
  </outline>
</glyph>
<glyph name="s" format="1">
  <advance width="352"/>
  <unicode hex="0073"/>
  <outline>
    <contour>
      <point x="290" y="385" type="curve"/>
      <point x="290" y="294" type="line"/>
      <point x="268" y="294" type="line"/>
      <point x="254" y="342"/>
      <point x="217" y="367"/>
      <point x="172" y="367" type="curve"/>
      <point x="131" y="367"/>
      <point x="108" y="339"/>
      <point x="108" y="312" type="curve"/>
      <point x="108" y="273"/>
      <point x="134" y="252"/>
      <point x="199" y="234" type="curve"/>
      <point x="271" y="214"/>
      <point x="327" y="193"/>
      <point x="327" y="116" type="curve"/>
      <point x="327" y="46"/>
      <point x="279" y="-10"/>
      <point x="176" y="-10" type="curve"/>
      <point x="118" y="-10"/>
      <point x="83" y="-2"/>
      <point x="43" y="12" type="curve"/>
      <point x="43" y="105" type="line"/>
      <point x="72" y="104" type="line"/>
      <point x="83" y="61"/>
      <point x="110" y="19"/>
      <point x="172" y="19" type="curve"/>
      <point x="217" y="19"/>
      <point x="251" y="53"/>
      <point x="251" y="87" type="curve"/>
      <point x="251" y="132"/>
      <point x="218" y="153"/>
      <point x="149" y="171" type="curve"/>
      <point x="87" y="187"/>
      <point x="33" y="209"/>
      <point x="33" y="278" type="curve"/>
      <point x="33" y="356"/>
      <point x="109" y="400"/>
      <point x="193" y="400" type="curve"/>
      <point x="235" y="400"/>
      <point x="279" y="389"/>
    </contour>
    <contour>
      <point x="176" y="25" type="move" name="bottom"/>
    </contour>
    <contour>
      <point x="176" y="397" type="move" name="top"/>
    </contour>
  </outline>
</glyph>
<glyph name="t" format="1">
  <advance width="266"/>
  <unicode hex="0074"/>
  <outline>
    <contour>
      <point x="25" y="368" type="curve"/>
      <point x="25" y="354" type="line"/>
      <point x="68" y="354" type="line"/>
      <point x="68" y="75" type="line" smooth="yes"/>
      <point x="68" y="30"/>
      <point x="110" y="-10"/>
      <point x="134" y="-10" type="curve"/>
      <point x="176" y="-10"/>
      <point x="213" y="13"/>
      <point x="253" y="37" type="curve"/>
      <point x="250" y="58" type="line"/>
      <point x="147" y="46"/>
      <point x="148" y="63"/>
      <point x="148" y="130" type="curve"/>
      <point x="148" y="354" type="line"/>
      <point x="252" y="354" type="line"/>
      <point x="255" y="390" type="line"/>
      <point x="148" y="390" type="line"/>
      <point x="149" y="469" type="line"/>
      <point x="135" y="469" type="line"/>
      <point x="107" y="437"/>
      <point x="69" y="386"/>
    </contour>
    <contour>
      <point x="136" y="25" type="move" name="bottom"/>
    </contour>
    <contour>
      <point x="136" y="211" type="move" name="center"/>
    </contour>
    <contour>
      <point x="136" y="397" type="move" name="top"/>
    </contour>
    <contour>
      <point x="255" y="397" type="move" name="topright"/>
    </contour>
  </outline>
</glyph>
<glyph name="u" format="1">
  <advance width="485"/>
  <unicode hex="0075"/>
  <outline>
    <contour>
      <point x="336" y="318" type="curve"/>
      <point x="336" y="90" type="line"/>
      <point x="339" y="92" type="line"/>
      <point x="347" y="-5" type="line"/>
      <point x="358" y="-9" type="line"/>
      <point x="384" y="2"/>
      <point x="420" y="16"/>
      <point x="454" y="31" type="curve"/>
      <point x="454" y="54" type="line"/>
      <point x="424" y="61"/>
      <point x="416" y="69"/>
      <point x="416" y="95" type="curve"/>
      <point x="416" y="320" type="line" smooth="yes"/>
      <point x="416" y="346"/>
      <point x="419" y="368"/>
      <point x="423" y="393" type="curve"/>
      <point x="416" y="398" type="line"/>
      <point x="365" y="390"/>
      <point x="317" y="389"/>
      <point x="267" y="389" type="curve"/>
      <point x="267" y="364" type="line"/>
      <point x="305" y="356" type="line" smooth="yes"/>
      <point x="326" y="352"/>
      <point x="336" y="340"/>
    </contour>
    <contour>
      <point x="344" y="66" type="curve"/>
      <point x="341" y="99" type="line"/>
      <point x="318" y="72"/>
      <point x="274" y="55"/>
      <point x="230" y="55" type="curve"/>
      <point x="174" y="55"/>
      <point x="154" y="83"/>
      <point x="154" y="133" type="curve"/>
      <point x="154" y="320" type="line" smooth="yes"/>
      <point x="154" y="346"/>
      <point x="158" y="372"/>
      <point x="166" y="387" type="curve"/>
      <point x="154" y="400" type="line"/>
      <point x="108" y="386"/>
      <point x="68" y="371"/>
      <point x="26" y="359" type="curve"/>
      <point x="26" y="334" type="line"/>
      <point x="54" y="331"/>
      <point x="74" y="314"/>
      <point x="74" y="283" type="curve"/>
      <point x="74" y="111" type="line" smooth="yes"/>
      <point x="74" y="41"/>
      <point x="94" y="-9"/>
      <point x="188" y="-9" type="curve"/>
      <point x="233" y="-9"/>
      <point x="298" y="25"/>
    </contour>
    <contour>
      <point x="243" y="25" type="move" name="bottom"/>
    </contour>
    <contour>
      <point x="436" y="34" type="move" name="ogonek"/>
    </contour>
    <contour>
      <point x="243" y="397" type="move" name="top"/>
    </contour>
    <contour>
      <point x="466" y="397" type="move" name="topright"/>
    </contour>
  </outline>
</glyph>
<glyph name="v" format="1">
  <advance width="429"/>
  <unicode hex="0076"/>
  <outline>
    <contour>
      <point x="205" y="0" type="curve"/>
      <point x="233" y="0" type="line"/>
      <point x="344" y="126"/>
      <point x="424" y="204"/>
      <point x="424" y="295" type="curve"/>
      <point x="424" y="390"/>
      <point x="352" y="401"/>
      <point x="277" y="400" type="curve"/>
      <point x="151" y="284" type="line"/>
      <point x="172" y="253" type="line"/>
      <point x="208" y="305"/>
      <point x="239" y="322"/>
      <point x="273" y="322" type="curve"/>
      <point x="314" y="322"/>
      <point x="345" y="297"/>
      <point x="345" y="241" type="curve"/>
      <point x="345" y="181"/>
      <point x="319" y="129"/>
      <point x="226" y="52" type="curve"/>
      <point x="269" y="70" type="line"/>
      <point x="229" y="208"/>
      <point x="183" y="306"/>
      <point x="114" y="390" type="curve"/>
      <point x="5" y="389" type="line"/>
      <point x="5" y="361" type="line"/>
      <point x="88" y="337"/>
      <point x="187" y="126"/>
    </contour>
  </outline>
</glyph>
<glyph name="w" format="1">
  <advance width="658"/>
  <unicode hex="0077"/>
  <outline>
    <contour>
      <point x="5" y="390" type="line"/>
      <point x="5" y="362" type="line"/>
      <point x="31" y="348"/>
      <point x="41" y="324"/>
      <point x="46" y="313" type="curve"/>
      <point x="190" y="-1" type="line"/>
      <point x="215" y="-1" type="line"/>
      <point x="329" y="261" type="line"/>
      <point x="447" y="-1" type="line"/>
      <point x="472" y="-1" type="line"/>
      <point x="610" y="311" type="line" smooth="yes"/>
      <point x="618" y="329"/>
      <point x="636" y="353"/>
      <point x="653" y="363" type="curve"/>
      <point x="653" y="390" type="line"/>
      <point x="522" y="390" type="line"/>
      <point x="522" y="363" type="line"/>
      <point x="562" y="358"/>
      <point x="575" y="348"/>
      <point x="565" y="322" type="curve"/>
      <point x="486" y="112" type="line"/>
      <point x="368" y="390" type="line"/>
      <point x="340" y="390" type="line"/>
      <point x="224" y="109" type="line"/>
      <point x="136" y="325" type="line" smooth="yes"/>
      <point x="126" y="350"/>
      <point x="145" y="362"/>
      <point x="188" y="362" type="curve"/>
      <point x="188" y="390" type="line"/>
    </contour>
  </outline>
</glyph>
<glyph name="x" format="1">
  <advance width="432"/>
  <unicode hex="0078"/>
  <outline>
    <contour>
      <point x="299" y="320" type="curve"/>
      <point x="220" y="223" type="line"/>
      <point x="242" y="201" type="line"/>
      <point x="355" y="317" type="line" smooth="yes"/>
      <point x="384" y="347"/>
      <point x="408" y="360"/>
      <point x="423" y="361" type="curve"/>
      <point x="423" y="390" type="line"/>
      <point x="270" y="390" type="line"/>
      <point x="270" y="361" type="line"/>
      <point x="310" y="355"/>
      <point x="314" y="338"/>
    </contour>
    <contour>
      <point x="133" y="78" type="curve"/>
      <point x="218" y="184" type="line"/>
      <point x="193" y="201" type="line"/>
      <point x="93" y="100" type="line" smooth="yes"/>
      <point x="37" y="44"/>
      <point x="15" y="28"/>
      <point x="0" y="28" type="curve"/>
      <point x="0" y="-1" type="line"/>
      <point x="154" y="-1" type="line"/>
      <point x="154" y="28" type="line"/>
      <point x="131" y="28"/>
      <point x="112" y="51"/>
    </contour>
    <contour>
      <point x="68" y="306" type="curve"/>
      <point x="264" y="82" type="line" smooth="yes"/>
      <point x="292" y="51"/>
      <point x="260" y="31"/>
      <point x="246" y="29" type="curve"/>
      <point x="246" y="0" type="line"/>
      <point x="432" y="0" type="line"/>
      <point x="432" y="32" type="line"/>
      <point x="416" y="32"/>
      <point x="396" y="49"/>
      <point x="367" y="84" type="curve"/>
      <point x="163" y="328" type="line" smooth="yes"/>
      <point x="147" y="347"/>
      <point x="169" y="356"/>
      <point x="190" y="361" type="curve"/>
      <point x="190" y="390" type="line"/>
      <point x="4" y="390" type="line"/>
      <point x="4" y="361" type="line"/>
      <point x="28" y="355"/>
      <point x="38" y="340"/>
    </contour>
    <contour>
      <point x="216" y="11" type="move" name="bottom"/>
    </contour>
    <contour>
      <point x="216" y="398" type="move" name="top"/>
    </contour>
  </outline>
</glyph>
<glyph name="y" format="1">
  <advance width="441"/>
  <unicode hex="0079"/>
  <outline>
    <contour>
      <point x="39" y="316" type="curve"/>
      <point x="141" y="-45" type="line"/>
      <point x="203" y="40" type="line"/>
      <point x="130" y="322" type="line" smooth="yes"/>
      <point x="122" y="352"/>
      <point x="135" y="358"/>
      <point x="174" y="362" type="curve"/>
      <point x="174" y="390" type="line"/>
      <point x="8" y="390" type="line"/>
      <point x="8" y="362" type="line"/>
      <point x="20" y="355"/>
      <point x="30" y="347"/>
    </contour>
    <contour>
      <point x="340" y="315" type="curve"/>
      <point x="42" y="-190" type="line"/>
      <point x="74" y="-207" type="line"/>
      <point x="390" y="310" type="line"/>
      <point x="400" y="327"/>
      <point x="419" y="352"/>
      <point x="436" y="362" type="curve"/>
      <point x="436" y="390" type="line"/>
      <point x="304" y="390" type="line"/>
      <point x="304" y="362" type="line"/>
      <point x="342" y="358"/>
      <point x="354" y="338"/>
    </contour>
    <contour>
      <point x="213" y="25" type="move" name="bottom"/>
    </contour>
    <contour>
      <point x="213" y="397" type="move" name="top"/>
    </contour>
  </outline>
</glyph>
<glyph name="z" format="1">
  <advance width="410"/>
  <unicode hex="007A"/>
  <outline>
    <contour>
      <point x="405" y="376" type="curve"/>
      <point x="405" y="395" type="line"/>
      <point x="296" y="388"/>
      <point x="166" y="391"/>
      <point x="55" y="391" type="curve"/>
      <point x="-5" y="311" type="line"/>
      <point x="5" y="298" type="line"/>
      <point x="26" y="306"/>
      <point x="53" y="313"/>
      <point x="92" y="313" type="curve"/>
      <point x="272" y="313" type="line"/>
      <point x="15" y="9" type="line"/>
      <point x="29" y="-9" type="line"/>
      <point x="59" y="-3"/>
      <point x="86" y="0"/>
      <point x="122" y="0" type="curve"/>
      <point x="362" y="0" type="line"/>
      <point x="362" y="116" type="line"/>
      <point x="339" y="116" type="line"/>
      <point x="332" y="93"/>
      <point x="327" y="79"/>
      <point x="297" y="79" type="curve"/>
      <point x="123" y="79" type="line"/>
      <point x="344" y="327" type="line" smooth="yes"/>
      <point x="354" y="339"/>
      <point x="380" y="363"/>
    </contour>
    <contour>
      <point x="206" y="25" type="move" name="bottom"/>
    </contour>
    <contour>
      <point x="206" y="397" type="move" name="top"/>
    </contour>
  </outline>
</glyph>
<glyph name="a_macr" format="1">
  <advance width="352"/>
  <unicode hex="0101"/>
  <outline>
    <contour>
      <point x="85" y="510" type="curve"/>
      <point x="56" y="519" type="line"/>
      <point x="70" y="542"/>
      <point x="121" y="595"/>
      <point x="144" y="605" type="curve"/>
      <point x="184" y="605"/>
      <point x="240" y="582"/>
      <point x="272" y="582" type="curve"/>
      <point x="293" y="582"/>
      <point x="307" y="598"/>
      <point x="319" y="603" type="curve"/>
      <point x="342" y="594" type="line"/>
      <point x="328" y="571"/>
      <point x="285" y="519"/>
      <point x="264" y="507" type="curve"/>
      <point x="225" y="512"/>
      <point x="158" y="533"/>
      <point x="127" y="533" type="curve"/>
      <point x="105" y="533"/>
      <point x="99" y="525"/>
    </contour>
    <component base="a"/>
  </outline>
</glyph>
<glyph name="e_macr" format="1">
  <advance width="361"/>
  <unicode hex="0113"/>
  <outline>
    <contour>
      <point x="227" y="43" type="curve"/>
      <point x="134" y="43"/>
      <point x="92" y="134"/>
      <point x="95" y="247" type="curve"/>
      <point x="97" y="306"/>
      <point x="112" y="351"/>
      <point x="152" y="351" type="curve"/>
      <point x="184" y="351"/>
      <point x="227" y="315"/>
      <point x="237" y="254" type="curve"/>
      <point x="92" y="212" type="line"/>
      <point x="92" y="181" type="line"/>
      <point x="328" y="254" type="line"/>
      <point x="332" y="268" type="line"/>
      <point x="304" y="347"/>
      <point x="243" y="400"/>
      <point x="204" y="400" type="curve"/>
      <point x="160" y="400"/>
      <point x="79" y="353"/>
      <point x="62" y="339" type="curve"/>
      <point x="34" y="306"/>
      <point x="25" y="234"/>
      <point x="25" y="188" type="curve"/>
      <point x="25" y="76"/>
      <point x="71" y="-10"/>
      <point x="191" y="-10" type="curve"/>
      <point x="246" y="-10"/>
      <point x="313" y="25"/>
      <point x="344" y="47" type="curve"/>
      <point x="337" y="67" type="line"/>
      <point x="303" y="50"/>
      <point x="253" y="43"/>
    </contour>
    <contour>
      <point x="584" y="879" type="move"/>
    </contour>
    <contour>
      <point x="71" y="491" type="curve"/>
      <point x="42" y="500" type="line"/>
      <point x="56" y="523"/>
      <point x="102" y="594"/>
      <point x="108" y="594" type="curve"/>
      <point x="148" y="594"/>
      <point x="229" y="580"/>
      <point x="261" y="580" type="curve"/>
      <point x="282" y="580"/>
      <point x="298" y="610"/>
      <point x="310" y="625" type="curve"/>
      <point x="338" y="617" type="line"/>
      <point x="324" y="594"/>
      <point x="259" y="512"/>
      <point x="253" y="512" type="curve"/>
      <point x="214" y="512"/>
      <point x="149" y="523"/>
      <point x="118" y="523" type="curve"/>
      <point x="96" y="523"/>
      <point x="85" y="508"/>
    </contour>
    <contour>
      <point x="184" y="35" type="move" name="bottom"/>
    </contour>
    <contour>
      <point x="327" y="34" type="move" name="ogonek"/>
    </contour>
    <contour>
      <point x="182" y="397" type="move" name="top"/>
    </contour>
  </outline>
</glyph>
<glyph name="e_ogon" format="1">
  <advance width="361"/>
  <unicode hex="0119"/>
  <outline>
    <contour>
      <point x="227" y="43" type="curve"/>
      <point x="134" y="43"/>
      <point x="92" y="134"/>
      <point x="95" y="247" type="curve"/>
      <point x="97" y="306"/>
      <point x="112" y="341"/>
      <point x="152" y="341" type="curve"/>
      <point x="184" y="341"/>
      <point x="213" y="327"/>
      <point x="242" y="296" type="curve"/>
      <point x="92" y="166" type="line"/>
      <point x="92" y="131" type="line"/>
      <point x="327" y="334" type="line"/>
      <point x="331" y="348" type="line"/>
      <point x="303" y="367"/>
      <point x="261" y="400"/>
      <point x="181" y="400" type="curve"/>
      <point x="159" y="400"/>
      <point x="79" y="338"/>
      <point x="62" y="318" type="curve"/>
      <point x="34" y="285"/>
      <point x="25" y="234"/>
      <point x="25" y="188" type="curve"/>
      <point x="25" y="76"/>
      <point x="71" y="-10"/>
      <point x="191" y="-10" type="curve"/>
      <point x="251" y="-10"/>
      <point x="304" y="20"/>
      <point x="344" y="47" type="curve"/>
      <point x="337" y="66" type="line"/>
      <point x="309" y="51"/>
      <point x="253" y="43"/>
    </contour>
    <contour>
      <point x="584" y="879" type="move"/>
    </contour>
    <contour>
      <point x="263" y="22" type="curve"/>
      <point x="237" y="22" type="line"/>
      <point x="160" y="-44"/>
      <point x="66" y="-191"/>
      <point x="48" y="-227" type="curve"/>
      <point x="55" y="-239" type="line"/>
      <point x="93" y="-239"/>
      <point x="199" y="-231"/>
      <point x="255" y="-209" type="curve"/>
      <point x="271" y="-192" type="line"/>
      <point x="272" y="-186" type="line"/>
      <point x="241" y="-188"/>
      <point x="179" y="-187"/>
      <point x="153" y="-181" type="curve"/>
      <point x="130" y="-176"/>
      <point x="135" y="-170"/>
      <point x="140" y="-157" type="curve"/>
      <point x="166" y="-98"/>
      <point x="209" y="-38"/>
    </contour>
    <contour>
      <point x="184" y="35" type="move" name="bottom"/>
    </contour>
    <contour>
      <point x="327" y="34" type="move" name="ogonek"/>
    </contour>
    <contour>
      <point x="182" y="397" type="move" name="top"/>
    </contour>
  </outline>
</glyph>
<glyph name="i_macr" format="1">
  <advance width="275"/>
  <unicode hex="012B"/>
  <outline>
    <contour>
      <point x="198" y="57" type="curve"/>
      <point x="198" y="155"/>
      <point x="193" y="294"/>
      <point x="207" y="391" type="curve"/>
      <point x="195" y="402" type="line"/>
      <point x="165" y="391"/>
      <point x="99" y="374"/>
      <point x="66" y="361" type="curve"/>
      <point x="66" y="336" type="line"/>
      <point x="97" y="334"/>
      <point x="116" y="328"/>
      <point x="117" y="286" type="curve"/>
      <point x="118" y="232"/>
      <point x="122" y="83"/>
      <point x="106" y="2" type="curve"/>
      <point x="108" y="-11" type="line"/>
      <point x="151" y="-6"/>
      <point x="194" y="-2"/>
      <point x="256" y="1" type="curve"/>
      <point x="256" y="26" type="line"/>
      <point x="207" y="30"/>
      <point x="198" y="31"/>
    </contour>
    <contour>
      <point x="44" y="530" type="curve"/>
      <point x="15" y="539" type="line"/>
      <point x="29" y="562"/>
      <point x="87" y="625"/>
      <point x="93" y="625" type="curve"/>
      <point x="133" y="625"/>
      <point x="168" y="615"/>
      <point x="200" y="615" type="curve"/>
      <point x="221" y="615"/>
      <point x="230" y="622"/>
      <point x="242" y="627" type="curve"/>
      <point x="270" y="619" type="line"/>
      <point x="256" y="596"/>
      <point x="198" y="532"/>
      <point x="192" y="532" type="curve"/>
      <point x="153" y="532"/>
      <point x="117" y="543"/>
      <point x="86" y="543" type="curve"/>
      <point x="64" y="543"/>
      <point x="58" y="537"/>
    </contour>
  </outline>
</glyph>
<glyph name="o_macr" format="1">
  <advance width="448"/>
  <unicode hex="014D"/>
  <outline>
    <contour>
      <point x="105" y="519" type="curve"/>
      <point x="76" y="528" type="line"/>
      <point x="100" y="551"/>
      <point x="144" y="586"/>
      <point x="164" y="604" type="curve"/>
      <point x="194" y="603"/>
      <point x="219" y="594"/>
      <point x="251" y="594" type="curve"/>
      <point x="272" y="594"/>
      <point x="314" y="600"/>
      <point x="336" y="610" type="curve"/>
      <point x="361" y="598" type="line"/>
      <point x="327" y="575"/>
      <point x="259" y="521"/>
      <point x="253" y="521" type="curve"/>
      <point x="214" y="527"/>
      <point x="178" y="532"/>
      <point x="147" y="532" type="curve"/>
      <point x="125" y="532"/>
      <point x="119" y="526"/>
    </contour>
    <component base="o"/>
  </outline>
</glyph>
<glyph name="u_macr" format="1">
  <advance width="485"/>
  <unicode hex="016B"/>
  <outline>
    <contour>
      <point x="88" y="539" type="curve"/>
      <point x="62" y="553" type="line"/>
      <point x="94" y="579"/>
      <point x="127" y="612"/>
      <point x="158" y="631" type="curve"/>
      <point x="223" y="618"/>
      <point x="256" y="607"/>
      <point x="343" y="668" type="curve"/>
      <point x="362" y="653" type="line"/>
      <point x="343" y="633"/>
      <point x="242" y="544"/>
      <point x="230" y="542" type="curve"/>
      <point x="173" y="570"/>
      <point x="147" y="579"/>
    </contour>
    <component base="u"/>
  </outline>
</glyph>
<glyph name="longs" format="1">
  <advance width="278"/>
  <unicode hex="017F"/>
  <outline>
    <contour>
      <point x="15" y="23" type="line"/>
      <point x="15" y="0" type="line"/>
      <point x="254" y="0" type="line"/>
      <point x="254" y="23" type="line"/>
      <point x="190" y="30" type="line" smooth="yes"/>
      <point x="176" y="32"/>
      <point x="170" y="40"/>
      <point x="170" y="54" type="curve"/>
      <point x="170" y="136"/>
      <point x="163" y="603"/>
      <point x="183" y="629" type="curve"/>
      <point x="197" y="647"/>
      <point x="220" y="660"/>
      <point x="252" y="660" type="curve"/>
      <point x="291" y="660"/>
      <point x="321" y="647"/>
      <point x="351" y="629" type="curve"/>
      <point x="369" y="647"/>
      <point x="382" y="669"/>
      <point x="387" y="689" type="curve"/>
      <point x="384" y="704"/>
      <point x="348" y="710"/>
      <point x="312" y="710" type="curve"/>
      <point x="234" y="710"/>
      <point x="185" y="672"/>
      <point x="153" y="642" type="curve"/>
      <point x="125" y="615"/>
      <point x="104" y="592"/>
      <point x="101" y="583" type="curve"/>
      <point x="84" y="532"/>
      <point x="90" y="437"/>
      <point x="88" y="372" type="curve"/>
      <point x="33" y="372" type="line"/>
      <point x="33" y="346" type="line"/>
      <point x="87" y="317" type="line"/>
      <point x="86" y="54" type="line" smooth="yes"/>
      <point x="86" y="40"/>
      <point x="78" y="32"/>
      <point x="64" y="30" type="curve"/>
    </contour>
    <contour>
      <point x="138" y="25" type="move" name="bottom"/>
    </contour>
    <contour>
      <point x="138" y="397" type="move" name="top"/>
    </contour>
  </outline>
</glyph>
<glyph name="alpha" format="1">
  <advance width="566"/>
  <unicode hex="03B1"/>
  <outline>
    <contour>
      <point x="25" y="194" type="curve"/>
      <point x="25" y="286"/>
      <point x="70" y="400"/>
      <point x="170" y="400" type="curve"/>
      <point x="235" y="400"/>
      <point x="286" y="346"/>
      <point x="327" y="275" type="curve"/>
      <point x="326" y="244" type="line"/>
      <point x="257" y="306"/>
      <point x="222" y="315"/>
      <point x="190" y="315" type="curve"/>
      <point x="129" y="315"/>
      <point x="70" y="264"/>
      <point x="70" y="184" type="curve"/>
      <point x="70" y="132"/>
      <point x="115" y="65"/>
      <point x="184" y="65" type="curve"/>
      <point x="235" y="65"/>
      <point x="275" y="90"/>
      <point x="325" y="152" type="curve"/>
      <point x="352" y="134" type="line"/>
      <point x="306" y="51"/>
      <point x="243" y="-12"/>
      <point x="181" y="-12" type="curve"/>
      <point x="89" y="-12"/>
      <point x="25" y="75"/>
    </contour>
    <contour>
      <point x="366" y="453" type="curve"/>
      <point x="476" y="424" type="line"/>
      <point x="464" y="396" type="line"/>
      <point x="413" y="364"/>
      <point x="357" y="286"/>
      <point x="357" y="200" type="curve"/>
      <point x="357" y="104"/>
      <point x="445" y="35"/>
      <point x="555" y="61" type="curve"/>
      <point x="561" y="34" type="line"/>
      <point x="413" y="-9" type="line"/>
      <point x="340" y="34"/>
      <point x="301" y="163"/>
      <point x="301" y="245" type="curve"/>
      <point x="301" y="337"/>
      <point x="326" y="400"/>
    </contour>
  </outline>
</glyph>
<glyph name="theta" format="1">
  <advance width="232"/>
  <unicode hex="03B8"/>
  <outline>
    <contour>
      <point x="118" y="-9" type="curve"/>
      <point x="165" y="-9"/>
      <point x="212" y="77"/>
      <point x="212" y="205" type="curve"/>
      <point x="212" y="313"/>
      <point x="195" y="401"/>
      <point x="118" y="401" type="curve"/>
      <point x="49" y="401"/>
      <point x="20" y="314"/>
      <point x="20" y="196" type="curve"/>
      <point x="20" y="78"/>
      <point x="60" y="-9"/>
    </contour>
    <contour>
      <point x="116" y="69" type="curve"/>
      <point x="78" y="69"/>
      <point x="65" y="138"/>
      <point x="65" y="197" type="curve"/>
      <point x="65" y="255"/>
      <point x="78" y="317"/>
      <point x="116" y="317" type="curve"/>
      <point x="153" y="317"/>
      <point x="168" y="274"/>
      <point x="168" y="206" type="curve"/>
      <point x="168" y="137"/>
      <point x="153" y="69"/>
    </contour>
    <contour>
      <point x="58" y="205" type="curve"/>
      <point x="58" y="172" type="line"/>
      <point x="103" y="175"/>
      <point x="148" y="175"/>
      <point x="193" y="172" type="curve"/>
      <point x="193" y="205" type="line"/>
      <point x="145" y="216"/>
      <point x="100" y="216"/>
    </contour>
  </outline>
</glyph>
<glyph name="pi" format="1">
  <advance width="640"/>
  <unicode hex="03C0"/>
  <outline>
    <contour>
      <point x="172" y="-4" type="curve"/>
      <point x="262" y="-4" type="line"/>
      <point x="256" y="110"/>
      <point x="260" y="240"/>
      <point x="262" y="354" type="curve"/>
      <point x="175" y="349" type="line"/>
      <point x="181" y="234"/>
      <point x="178" y="111"/>
    </contour>
    <contour>
      <point x="489" y="352" type="curve"/>
      <point x="399" y="358" type="line"/>
      <point x="406" y="257"/>
      <point x="407" y="147"/>
      <point x="404" y="46" type="curve"/>
      <point x="421" y="10"/>
      <point x="462" y="-18"/>
      <point x="462" y="-9" type="curve"/>
      <point x="522" y="72" type="line"/>
      <point x="506" y="91"/>
      <point x="484" y="93"/>
      <point x="484" y="155" type="curve"/>
      <point x="484" y="217"/>
      <point x="485" y="290"/>
    </contour>
    <contour>
      <point x="5" y="293" type="line"/>
      <point x="27" y="282" type="line"/>
      <point x="52" y="305"/>
      <point x="77" y="334"/>
      <point x="167" y="339" type="curve"/>
      <point x="323" y="348"/>
      <point x="488" y="342"/>
      <point x="634" y="342" type="curve"/>
      <point x="635" y="388" type="line"/>
      <point x="498" y="390"/>
      <point x="152" y="389"/>
      <point x="40" y="389" type="curve"/>
    </contour>
  </outline>
</glyph>
<glyph name="phi" format="1">
  <advance width="491"/>
  <unicode hex="03C6"/>
  <outline>
    <contour>
      <point x="252" y="-11" type="curve"/>
      <point x="370" y="-11"/>
      <point x="471" y="81"/>
      <point x="471" y="194" type="curve"/>
      <point x="471" y="307"/>
      <point x="379" y="399"/>
      <point x="251" y="399" type="curve"/>
      <point x="123" y="399"/>
      <point x="20" y="305"/>
      <point x="20" y="192" type="curve"/>
      <point x="20" y="65"/>
      <point x="111" y="-11"/>
    </contour>
    <contour>
      <point x="247" y="42" type="curve"/>
      <point x="140" y="42"/>
      <point x="88" y="103"/>
      <point x="88" y="191" type="curve"/>
      <point x="88" y="271"/>
      <point x="152" y="334"/>
      <point x="248" y="334" type="curve"/>
      <point x="344" y="334"/>
      <point x="405" y="271"/>
      <point x="405" y="181" type="curve"/>
      <point x="405" y="93"/>
      <point x="339" y="42"/>
    </contour>
    <contour>
      <point x="275" y="368" type="curve"/>
      <point x="215" y="367" type="line"/>
      <point x="229" y="210"/>
      <point x="220" y="-38"/>
      <point x="198" y="-217" type="curve"/>
      <point x="203" y="-223" type="line"/>
      <point x="310" y="-206" type="line"/>
      <point x="308" y="-180" type="line"/>
      <point x="279" y="-165"/>
      <point x="274" y="-165"/>
      <point x="274" y="-123" type="curve"/>
      <point x="274" y="41"/>
      <point x="274" y="229"/>
    </contour>
  </outline>
</glyph>
<glyph name="psi" format="1">
  <advance width="655"/>
  <unicode hex="03C8"/>
  <outline>
    <contour>
      <point x="398" y="625" type="curve"/>
      <point x="301" y="625" type="line"/>
      <point x="317" y="462"/>
      <point x="319" y="-18"/>
      <point x="306" y="-273" type="curve"/>
      <point x="399" y="-266" type="line"/>
      <point x="401" y="-239" type="line"/>
      <point x="368" y="-214"/>
      <point x="374" y="462"/>
    </contour>
    <contour>
      <point x="10" y="287" type="line"/>
      <point x="18" y="257" type="line"/>
      <point x="70" y="280"/>
      <point x="124" y="10"/>
      <point x="340" y="10" type="curve"/>
      <point x="495" y="10"/>
      <point x="605" y="151"/>
      <point x="645" y="329" type="curve"/>
      <point x="617" y="335" type="line"/>
      <point x="543" y="171"/>
      <point x="469" y="62"/>
      <point x="346" y="61" type="curve"/>
      <point x="195" y="60"/>
      <point x="143" y="231"/>
      <point x="94" y="315" type="curve"/>
    </contour>
  </outline>
</glyph>
<glyph name="omega" format="1">
  <advance width="562"/>
  <unicode hex="03C9"/>
  <outline>
    <contour>
      <point x="35" y="183" type="curve"/>
      <point x="32" y="80"/>
      <point x="88" y="-10"/>
      <point x="171" y="-10" type="curve"/>
      <point x="216" y="-10"/>
      <point x="252" y="25"/>
      <point x="281" y="82" type="curve"/>
      <point x="295" y="21"/>
      <point x="338" y="-10"/>
      <point x="391" y="-10" type="curve"/>
      <point x="454" y="-10"/>
      <point x="529" y="81"/>
      <point x="527" y="194" type="curve"/>
      <point x="524" y="323"/>
      <point x="437" y="404"/>
      <point x="300" y="396" type="curve"/>
      <point x="309" y="302" type="line"/>
      <point x="384" y="320"/>
      <point x="490" y="280"/>
      <point x="490" y="166" type="curve"/>
      <point x="490" y="112"/>
      <point x="452" y="63"/>
      <point x="383" y="63" type="curve"/>
      <point x="346" y="63"/>
      <point x="314" y="82"/>
      <point x="296" y="114" type="curve"/>
      <point x="317" y="159"/>
      <point x="324" y="200"/>
      <point x="319" y="234" type="curve"/>
      <point x="254" y="245" type="line"/>
      <point x="243" y="234" type="line"/>
      <point x="241" y="190"/>
      <point x="248" y="149"/>
      <point x="266" y="114" type="curve"/>
      <point x="248" y="82"/>
      <point x="216" y="64"/>
      <point x="179" y="64" type="curve"/>
      <point x="110" y="64"/>
      <point x="73" y="112"/>
      <point x="73" y="166" type="curve"/>
      <point x="73" y="280"/>
      <point x="189" y="318"/>
      <point x="246" y="302" type="curve"/>
      <point x="255" y="396" type="line"/>
      <point x="143" y="404"/>
      <point x="38" y="322"/>
    </contour>
  </outline>
</glyph>
<glyph name="omegatonos" format="1">
  <advance width="568"/>
  <unicode hex="03CE"/>
  <outline>
    <contour>
      <point x="207" y="523" type="curve"/>
      <point x="204" y="535" type="line"/>
      <point x="264" y="597" type="line"/>
      <point x="306" y="597"/>
      <point x="341" y="565"/>
      <point x="341" y="535" type="curve"/>
      <point x="341" y="502"/>
      <point x="296" y="464"/>
      <point x="253" y="444" type="curve"/>
      <point x="238" y="456" type="line"/>
      <point x="257" y="473"/>
      <point x="261" y="477"/>
      <point x="261" y="495" type="curve"/>
      <point x="261" y="513"/>
      <point x="240" y="535"/>
    </contour>
    <contour>
      <point x="178" y="589" type="curve"/>
      <point x="128" y="614" type="line"/>
      <point x="172" y="661"/>
      <point x="237" y="668"/>
      <point x="280" y="668" type="curve"/>
      <point x="342" y="668"/>
      <point x="421" y="640"/>
      <point x="469" y="640" type="curve"/>
      <point x="489" y="640"/>
      <point x="500" y="647"/>
      <point x="519" y="666" type="curve"/>
      <point x="578" y="645" type="line"/>
      <point x="557" y="612"/>
      <point x="517" y="590"/>
      <point x="480" y="590" type="curve"/>
      <point x="431" y="590"/>
      <point x="315" y="640"/>
      <point x="272" y="640" type="curve"/>
      <point x="236" y="640"/>
      <point x="207" y="612"/>
    </contour>
    <component base="omega" xOffset="-16"/>
  </outline>
</glyph>
<glyph name="p_bardes" format="1">
  <advance width="485"/>
  <unicode hex="A750"/>
  <outline>
    <contour>
      <point x="399" y="-184" type="line"/>
      <point x="390" y="-213" type="line"/>
      <point x="297" y="-223"/>
      <point x="101" y="-214"/>
      <point x="19" y="-169" type="curve"/>
      <point x="24" y="-160" type="line"/>
      <point x="71" y="-125" type="line"/>
      <point x="170" y="-167"/>
      <point x="315" y="-186"/>
      <point x="395" y="-181" type="curve"/>
    </contour>
    <component base="p" xOffset="27"/>
  </outline>
</glyph>
<glyph name="p_flour" format="1">
  <advance width="496"/>
  <unicode hex="A753"/>
  <outline>
    <contour>
      <point x="88" y="10" type="curve"/>
      <point x="86" y="-19" type="line"/>
      <point x="-76" y="-62"/>
      <point x="-116" y="-113"/>
      <point x="-86" y="-177" type="curve"/>
      <point x="-111" y="-188" type="line"/>
      <point x="-129" y="-164"/>
      <point x="-172" y="-126"/>
      <point x="-172" y="-105" type="curve"/>
      <point x="-172" y="-72"/>
      <point x="-59" y="-27"/>
    </contour>
    <component base="p"/>
  </outline>
</glyph>
<glyph name="q_bardes" format="1">
  <advance width="501"/>
  <unicode hex="A757"/>
  <outline>
    <contour>
      <point x="472" y="-137" type="line"/>
      <point x="476" y="-167" type="line"/>
      <point x="401" y="-188"/>
      <point x="223" y="-239"/>
      <point x="121" y="-274" type="curve"/>
      <point x="122" y="-264" type="line"/>
      <point x="150" y="-222" type="line"/>
      <point x="261" y="-198"/>
      <point x="397" y="-175"/>
      <point x="467" y="-136" type="curve"/>
    </contour>
    <component base="q"/>
  </outline>
</glyph>
<glyph name="rum" format="1">
  <advance width="600"/>
  <unicode hex="A775"/>
  <outline>
    <contour>
      <point x="33" y="-11" type="curve"/>
      <point x="21" y="7" type="line"/>
      <point x="86" y="88"/>
      <point x="141" y="184"/>
      <point x="141" y="247" type="curve"/>
      <point x="141" y="290"/>
      <point x="130" y="314"/>
      <point x="94" y="314" type="curve"/>
      <point x="78" y="314"/>
      <point x="62" y="306"/>
      <point x="36" y="294" type="curve"/>
      <point x="23" y="309" type="line"/>
      <point x="46" y="333"/>
      <point x="92" y="397"/>
      <point x="102" y="397" type="curve"/>
      <point x="140" y="397"/>
      <point x="209" y="370"/>
      <point x="209" y="289" type="curve"/>
      <point x="209" y="231"/>
      <point x="158" y="158"/>
      <point x="104" y="63" type="curve"/>
      <point x="169" y="71"/>
      <point x="221" y="79"/>
      <point x="308" y="79" type="curve"/>
      <point x="348" y="186"/>
      <point x="349" y="248"/>
      <point x="369" y="332" type="curve"/>
      <point x="376" y="363"/>
      <point x="408" y="395"/>
      <point x="441" y="395" type="curve"/>
      <point x="451" y="395"/>
      <point x="486" y="358"/>
      <point x="514" y="326" type="curve"/>
      <point x="503" y="310" type="line"/>
      <point x="443" y="310"/>
      <point x="416" y="267"/>
      <point x="399" y="221" type="curve"/>
      <point x="346" y="77" type="line"/>
      <point x="373" y="71"/>
      <point x="413" y="67"/>
      <point x="441" y="67" type="curve"/>
      <point x="483" y="67"/>
      <point x="513" y="85"/>
      <point x="545" y="99" type="curve"/>
      <point x="562" y="84" type="line"/>
      <point x="516" y="49"/>
      <point x="441" y="-13"/>
      <point x="427" y="-13" type="curve"/>
      <point x="404" y="-13"/>
      <point x="364" y="5"/>
      <point x="325" y="8" type="curve"/>
      <point x="203" y="-264" type="line"/>
      <point x="129" y="-264" type="line"/>
      <point x="129" y="-255" type="line"/>
      <point x="181" y="-167"/>
      <point x="241" y="-85"/>
      <point x="284" y="10" type="curve"/>
      <point x="183" y="12"/>
      <point x="109" y="0"/>
    </contour>
  </outline>
</glyph>
<glyph name="t_acute" format="1">
  <advance width="491"/>
  <unicode hex="E6E2"/>
  <outline>
    <contour>
      <point x="170" y="554" type="curve"/>
      <point x="171" y="550" type="line"/>
      <point x="225" y="546"/>
      <point x="278" y="497"/>
      <point x="234" y="475" type="curve"/>
      <point x="234" y="465" type="line"/>
      <point x="396" y="468"/>
      <point x="481" y="499"/>
      <point x="481" y="578" type="curve"/>
      <point x="481" y="600"/>
      <point x="476" y="627"/>
      <point x="441" y="652" type="curve"/>
      <point x="438" y="652" type="line"/>
      <point x="396" y="583" type="line"/>
      <point x="397" y="580" type="line"/>
      <point x="408" y="575"/>
      <point x="417" y="568"/>
      <point x="417" y="554" type="curve"/>
      <point x="417" y="529"/>
      <point x="383" y="502"/>
      <point x="323" y="491" type="curve"/>
      <point x="323" y="549"/>
      <point x="292" y="592"/>
      <point x="228" y="592" type="curve"/>
      <point x="224" y="592"/>
      <point x="181" y="562"/>
    </contour>
    <contour>
      <point x="25" y="367" type="curve"/>
      <point x="25" y="353" type="line"/>
      <point x="68" y="353" type="line"/>
      <point x="68" y="63" type="line" smooth="yes"/>
      <point x="68" y="37"/>
      <point x="104" y="-10"/>
      <point x="148" y="-10" type="curve"/>
      <point x="190" y="-10"/>
      <point x="259" y="48"/>
      <point x="299" y="87" type="curve"/>
      <point x="292" y="106" type="line"/>
      <point x="278" y="98"/>
      <point x="223" y="60"/>
      <point x="187" y="60" type="curve"/>
      <point x="161" y="60"/>
      <point x="152" y="72"/>
      <point x="152" y="97" type="curve"/>
      <point x="152" y="353" type="line"/>
      <point x="296" y="353" type="line"/>
      <point x="299" y="390" type="line"/>
      <point x="152" y="390" type="line"/>
      <point x="153" y="479" type="line"/>
      <point x="139" y="479" type="line"/>
      <point x="111" y="437"/>
      <point x="69" y="405"/>
    </contour>
    <contour>
      <point x="140" y="25" type="move" name="bottom"/>
    </contour>
    <contour>
      <point x="140" y="211" type="move" name="center"/>
    </contour>
    <contour>
      <point x="140" y="397" type="move" name="top"/>
    </contour>
    <contour>
      <point x="259" y="397" type="move" name="topright"/>
    </contour>
  </outline>
</glyph>
<glyph name="Q.ss01" format="1">
  <advance width="950"/>
  <outline>
    <contour>
      <point x="587" y="51" type="curve"/>
      <point x="452" y="5" type="line"/>
      <point x="614" y="-158"/>
      <point x="805" y="-235"/>
      <point x="1025" y="-235" type="curve"/>
      <point x="1160" y="-235"/>
      <point x="1271" y="-209"/>
      <point x="1380" y="-163" type="curve"/>
      <point x="1372" y="-138" type="line"/>
      <point x="1264" y="-177"/>
      <point x="1172" y="-185"/>
      <point x="1061" y="-185" type="curve"/>
      <point x="827" y="-185"/>
      <point x="694" y="-101"/>
    </contour>
    <contour>
      <point x="436" y="-7" type="curve"/>
      <point x="660" y="-7"/>
      <point x="829" y="138"/>
      <point x="829" y="361" type="curve"/>
      <point x="829" y="575"/>
      <point x="660" y="708"/>
      <point x="436" y="708" type="curve"/>
      <point x="205" y="708"/>
      <point x="45" y="545"/>
      <point x="45" y="342" type="curve"/>
      <point x="45" y="131"/>
      <point x="211" y="-7"/>
    </contour>
    <contour>
      <point x="717" y="342" type="curve"/>
      <point x="717" y="179"/>
      <point x="601" y="47"/>
      <point x="451" y="47" type="curve"/>
      <point x="279" y="47"/>
      <point x="158" y="183"/>
      <point x="158" y="363" type="curve"/>
      <point x="158" y="525"/>
      <point x="269" y="659"/>
      <point x="421" y="659" type="curve"/>
      <point x="590" y="659"/>
      <point x="717" y="513"/>
    </contour>
  </outline>
</glyph>
<glyph name="Q_u" format="1">
  <advance width="1416"/>
  <outline>
    <contour>
      <point x="592" y="51" type="curve"/>
      <point x="457" y="5" type="line"/>
      <point x="619" y="-158"/>
      <point x="810" y="-235"/>
      <point x="1030" y="-235" type="curve"/>
      <point x="1165" y="-235"/>
      <point x="1276" y="-209"/>
      <point x="1385" y="-163" type="curve"/>
      <point x="1377" y="-138" type="line"/>
      <point x="1269" y="-177"/>
      <point x="1177" y="-185"/>
      <point x="1066" y="-185" type="curve"/>
      <point x="832" y="-185"/>
      <point x="699" y="-101"/>
    </contour>
    <contour>
      <point x="924" y="363" type="curve"/>
      <point x="924" y="338" type="line"/>
      <point x="954" y="335"/>
      <point x="975" y="317"/>
      <point x="975" y="284" type="curve"/>
      <point x="975" y="117" type="line" smooth="yes"/>
      <point x="975" y="42"/>
      <point x="1001" y="-11"/>
      <point x="1091" y="-11" type="curve"/>
      <point x="1158" y="-11"/>
      <point x="1215" y="42"/>
      <point x="1253" y="61" type="curve"/>
      <point x="1257" y="-8" type="line"/>
      <point x="1269" y="-13" type="line"/>
      <point x="1300" y="-1"/>
      <point x="1334" y="22"/>
      <point x="1370" y="38" type="curve"/>
      <point x="1370" y="68" type="line"/>
      <point x="1338" y="65"/>
      <point x="1330" y="68"/>
      <point x="1330" y="96" type="curve"/>
      <point x="1330" y="311" type="line" smooth="yes"/>
      <point x="1330" y="339"/>
      <point x="1333" y="372"/>
      <point x="1337" y="399" type="curve"/>
      <point x="1329" y="405" type="line"/>
      <point x="1276" y="387"/>
      <point x="1231" y="372"/>
      <point x="1176" y="363" type="curve"/>
      <point x="1176" y="337" type="line"/>
      <point x="1221" y="326" type="line" smooth="yes"/>
      <point x="1243" y="321"/>
      <point x="1250" y="315"/>
      <point x="1250" y="291" type="curve"/>
      <point x="1250" y="92" type="line"/>
      <point x="1214" y="69"/>
      <point x="1180" y="57"/>
      <point x="1136" y="57" type="curve"/>
      <point x="1076" y="57"/>
      <point x="1055" y="93"/>
      <point x="1055" y="147" type="curve"/>
      <point x="1055" y="289" type="line" smooth="yes"/>
      <point x="1055" y="317"/>
      <point x="1058" y="364"/>
      <point x="1063" y="401" type="curve"/>
      <point x="1052" y="407" type="line"/>
      <point x="1017" y="391"/>
      <point x="970" y="375"/>
    </contour>
    <contour>
      <point x="436" y="-7" type="curve"/>
      <point x="660" y="-7"/>
      <point x="829" y="138"/>
      <point x="829" y="361" type="curve"/>
      <point x="829" y="575"/>
      <point x="660" y="708"/>
      <point x="436" y="708" type="curve"/>
      <point x="205" y="708"/>
      <point x="45" y="545"/>
      <point x="45" y="342" type="curve"/>
      <point x="45" y="131"/>
      <point x="211" y="-7"/>
    </contour>
    <contour>
      <point x="717" y="342" type="curve"/>
      <point x="717" y="179"/>
      <point x="601" y="47"/>
      <point x="451" y="47" type="curve"/>
      <point x="279" y="47"/>
      <point x="158" y="183"/>
      <point x="158" y="363" type="curve"/>
      <point x="158" y="525"/>
      <point x="269" y="659"/>
      <point x="421" y="659" type="curve"/>
      <point x="590" y="659"/>
      <point x="717" y="513"/>
    </contour>
  </outline>
</glyph>
<glyph name="Q_u.ss01" format="1">
  <advance width="1411"/>
  <outline>
    <contour>
      <point x="582" y="51" type="curve"/>
      <point x="447" y="5" type="line"/>
      <point x="591" y="-123"/>
      <point x="776" y="-178"/>
      <point x="985" y="-214" type="curve"/>
      <point x="993" y="-189" type="line"/>
      <point x="825" y="-162"/>
      <point x="679" y="-89"/>
    </contour>
    <contour>
      <point x="934" y="363" type="curve"/>
      <point x="934" y="338" type="line"/>
      <point x="964" y="335"/>
      <point x="985" y="317"/>
      <point x="985" y="284" type="curve"/>
      <point x="985" y="117" type="line" smooth="yes"/>
      <point x="985" y="42"/>
      <point x="1011" y="-11"/>
      <point x="1101" y="-11" type="curve"/>
      <point x="1168" y="-11"/>
      <point x="1225" y="42"/>
      <point x="1263" y="61" type="curve"/>
      <point x="1267" y="-8" type="line"/>
      <point x="1279" y="-13" type="line"/>
      <point x="1310" y="-1"/>
      <point x="1344" y="22"/>
      <point x="1380" y="38" type="curve"/>
      <point x="1380" y="68" type="line"/>
      <point x="1348" y="65"/>
      <point x="1340" y="68"/>
      <point x="1340" y="96" type="curve"/>
      <point x="1340" y="311" type="line" smooth="yes"/>
      <point x="1340" y="339"/>
      <point x="1343" y="372"/>
      <point x="1347" y="399" type="curve"/>
      <point x="1339" y="405" type="line"/>
      <point x="1286" y="387"/>
      <point x="1241" y="372"/>
      <point x="1186" y="363" type="curve"/>
      <point x="1186" y="337" type="line"/>
      <point x="1231" y="326" type="line" smooth="yes"/>
      <point x="1253" y="321"/>
      <point x="1260" y="315"/>
      <point x="1260" y="291" type="curve"/>
      <point x="1260" y="92" type="line"/>
      <point x="1224" y="69"/>
      <point x="1190" y="57"/>
      <point x="1146" y="57" type="curve"/>
      <point x="1086" y="57"/>
      <point x="1065" y="93"/>
      <point x="1065" y="147" type="curve"/>
      <point x="1065" y="289" type="line" smooth="yes"/>
      <point x="1065" y="317"/>
      <point x="1068" y="364"/>
      <point x="1073" y="401" type="curve"/>
      <point x="1062" y="407" type="line"/>
      <point x="1027" y="391"/>
      <point x="980" y="375"/>
    </contour>
    <contour>
      <point x="436" y="-7" type="curve"/>
      <point x="660" y="-7"/>
      <point x="829" y="138"/>
      <point x="829" y="361" type="curve"/>
      <point x="829" y="575"/>
      <point x="660" y="708"/>
      <point x="436" y="708" type="curve"/>
      <point x="205" y="708"/>
      <point x="45" y="545"/>
      <point x="45" y="342" type="curve"/>
      <point x="45" y="131"/>
      <point x="211" y="-7"/>
    </contour>
    <contour>
      <point x="717" y="342" type="curve"/>
      <point x="717" y="179"/>
      <point x="601" y="47"/>
      <point x="451" y="47" type="curve"/>
      <point x="279" y="47"/>
      <point x="158" y="183"/>
      <point x="158" y="363" type="curve"/>
      <point x="158" y="525"/>
      <point x="269" y="659"/>
      <point x="421" y="659" type="curve"/>
      <point x="590" y="659"/>
      <point x="717" y="513"/>
    </contour>
  </outline>
</glyph>
<glyph name="d_strok" format="1">
  <advance width="508"/>
  <outline>
    <contour>
      <point x="401" y="326" type="curve"/>
      <point x="407" y="305" type="line"/>
      <point x="521" y="339"/>
      <point x="625" y="415"/>
      <point x="625" y="543" type="curve"/>
      <point x="625" y="622"/>
      <point x="580" y="666"/>
      <point x="518" y="702" type="curve"/>
      <point x="453" y="647" type="line"/>
      <point x="453" y="625" type="line"/>
      <point x="524" y="623"/>
      <point x="559" y="569"/>
      <point x="559" y="519" type="curve"/>
      <point x="559" y="430"/>
      <point x="507" y="376"/>
    </contour>
    <component base="d"/>
  </outline>
</glyph>
<glyph name="f_f" format="1">
  <advance width="603"/>
  <outline>
    <contour>
      <point x="19" y="25" type="line"/>
      <point x="19" y="0" type="line"/>
      <point x="253" y="0" type="line"/>
      <point x="253" y="25" type="line"/>
      <point x="189" y="32" type="line" smooth="yes"/>
      <point x="175" y="34"/>
      <point x="169" y="42"/>
      <point x="169" y="56" type="curve"/>
      <point x="170" y="317" type="line"/>
      <point x="416" y="317" type="line"/>
      <point x="415" y="56" type="line" smooth="yes"/>
      <point x="415" y="42"/>
      <point x="407" y="34"/>
      <point x="393" y="32" type="curve"/>
      <point x="344" y="25" type="line"/>
      <point x="344" y="0" type="line"/>
      <point x="579" y="0" type="line"/>
      <point x="579" y="25" type="line"/>
      <point x="515" y="32" type="line" smooth="yes"/>
      <point x="501" y="34"/>
      <point x="495" y="42"/>
      <point x="495" y="56" type="curve"/>
      <point x="496" y="317" type="line"/>
      <point x="589" y="317" type="line"/>
      <point x="592" y="372" type="line"/>
      <point x="496" y="372" type="line"/>
      <point x="496" y="461"/>
      <point x="486" y="602"/>
      <point x="507" y="629" type="curve"/>
      <point x="521" y="647"/>
      <point x="555" y="660"/>
      <point x="587" y="660" type="curve"/>
      <point x="626" y="660"/>
      <point x="664" y="645"/>
      <point x="694" y="627" type="curve"/>
      <point x="712" y="645"/>
      <point x="729" y="663"/>
      <point x="729" y="676" type="curve"/>
      <point x="717" y="703"/>
      <point x="653" y="710"/>
      <point x="627" y="710" type="curve"/>
      <point x="585" y="710"/>
      <point x="552" y="690"/>
      <point x="499" y="663" type="curve"/>
      <point x="470" y="673"/>
      <point x="385" y="706"/>
      <point x="338" y="706" type="curve"/>
      <point x="313" y="706"/>
      <point x="221" y="676"/>
      <point x="181" y="653" type="curve"/>
      <point x="148" y="634"/>
      <point x="109" y="597"/>
      <point x="106" y="588" type="curve"/>
      <point x="89" y="537"/>
      <point x="95" y="442"/>
      <point x="93" y="377" type="curve"/>
      <point x="27" y="342" type="line"/>
      <point x="27" y="317" type="line"/>
      <point x="90" y="317" type="line"/>
      <point x="89" y="56" type="line" smooth="yes"/>
      <point x="89" y="42"/>
      <point x="81" y="34"/>
      <point x="67" y="32" type="curve"/>
    </contour>
    <contour>
      <point x="168" y="464" type="curve"/>
      <point x="168" y="588"/>
      <point x="189" y="626"/>
      <point x="240" y="655" type="curve"/>
      <point x="383" y="649"/>
      <point x="422" y="633"/>
      <point x="422" y="567" type="curve"/>
      <point x="422" y="499"/>
      <point x="421" y="421"/>
      <point x="417" y="372" type="curve"/>
      <point x="170" y="372" type="line"/>
      <point x="167" y="403"/>
      <point x="168" y="433"/>
    </contour>
    <contour>
      <point x="127" y="25" type="move" name="bottom"/>
    </contour>
    <contour>
      <point x="127" y="397" type="move" name="top"/>
    </contour>
  </outline>
</glyph>
<glyph name="f_i" format="1">
  <advance width="507"/>
  <outline>
    <contour>
      <point x="444" y="58" type="curve"/>
      <point x="444" y="156"/>
      <point x="439" y="295"/>
      <point x="453" y="392" type="curve"/>
      <point x="441" y="403" type="line"/>
      <point x="411" y="392"/>
      <point x="345" y="375"/>
      <point x="312" y="362" type="curve"/>
      <point x="312" y="337" type="line"/>
      <point x="343" y="335"/>
      <point x="362" y="329"/>
      <point x="363" y="287" type="curve"/>
      <point x="364" y="233"/>
      <point x="368" y="84"/>
      <point x="352" y="3" type="curve"/>
      <point x="354" y="-10" type="line"/>
      <point x="397" y="-5"/>
      <point x="440" y="-1"/>
      <point x="502" y="2" type="curve"/>
      <point x="502" y="27" type="line"/>
      <point x="453" y="31"/>
      <point x="444" y="32"/>
    </contour>
    <component base="f"/>
  </outline>
</glyph>
<glyph name="f_l" format="1">
  <advance width="549"/>
  <outline>
    <contour>
      <point x="488" y="89" type="curve"/>
      <point x="488" y="541" type="line" smooth="yes"/>
      <point x="488" y="580"/>
      <point x="492" y="658"/>
      <point x="496" y="706" type="curve"/>
      <point x="472" y="710" type="line"/>
      <point x="454" y="683"/>
      <point x="427" y="647"/>
      <point x="403" y="623" type="curve"/>
      <point x="405" y="622"/>
      <point x="408" y="572"/>
      <point x="408" y="542" type="curve"/>
      <point x="408" y="89" type="line" smooth="yes"/>
      <point x="408" y="61"/>
      <point x="403" y="35"/>
      <point x="375" y="30" type="curve"/>
      <point x="349" y="25" type="line"/>
      <point x="349" y="0" type="line"/>
      <point x="544" y="0" type="line"/>
      <point x="544" y="25" type="line"/>
      <point x="516" y="30" type="line" smooth="yes"/>
      <point x="495" y="34"/>
      <point x="488" y="54"/>
    </contour>
    <contour>
      <point x="19" y="26" type="line"/>
      <point x="19" y="0" type="line"/>
      <point x="258" y="0" type="line"/>
      <point x="258" y="26" type="line"/>
      <point x="194" y="33" type="line" smooth="yes"/>
      <point x="180" y="35"/>
      <point x="174" y="43"/>
      <point x="174" y="57" type="curve"/>
      <point x="175" y="317" type="line"/>
      <point x="428" y="317" type="line"/>
      <point x="431" y="372" type="line"/>
      <point x="174" y="372" type="line"/>
      <point x="169" y="467"/>
      <point x="175" y="549"/>
      <point x="186" y="588" type="curve"/>
      <point x="199" y="634"/>
      <point x="241" y="655"/>
      <point x="256" y="655" type="curve"/>
      <point x="271" y="655"/>
      <point x="430" y="643"/>
      <point x="427" y="541" type="curve"/>
      <point x="425" y="477" type="line"/>
      <point x="490" y="637" type="line"/>
      <point x="441" y="667"/>
      <point x="376" y="700"/>
      <point x="329" y="700" type="curve"/>
      <point x="304" y="700"/>
      <point x="226" y="676"/>
      <point x="186" y="653" type="curve"/>
      <point x="153" y="634"/>
      <point x="110" y="597"/>
      <point x="107" y="588" type="curve"/>
      <point x="90" y="537"/>
      <point x="96" y="442"/>
      <point x="94" y="377" type="curve"/>
      <point x="27" y="341" type="line"/>
      <point x="27" y="317" type="line"/>
      <point x="91" y="317" type="line"/>
      <point x="90" y="57" type="line" smooth="yes"/>
      <point x="90" y="43"/>
      <point x="82" y="35"/>
      <point x="68" y="33" type="curve"/>
    </contour>
  </outline>
</glyph>
<glyph name="i_j" format="1">
  <advance width="398"/>
  <outline>
    <contour>
      <point x="92" y="593" type="curve"/>
      <point x="65" y="590"/>
      <point x="50" y="570"/>
      <point x="53" y="549" type="curve"/>
      <point x="56" y="526"/>
      <point x="75" y="511"/>
      <point x="103" y="516" type="curve"/>
      <point x="129" y="521"/>
      <point x="144" y="537"/>
      <point x="140" y="561" type="curve"/>
      <point x="136" y="583"/>
      <point x="119" y="596"/>
    </contour>
    <contour>
      <point x="168" y="-10" type="curve"/>
      <point x="163" y="89"/>
      <point x="159" y="291"/>
      <point x="168" y="339" type="curve"/>
      <point x="99" y="396" type="line"/>
      <point x="70" y="383"/>
      <point x="49" y="370"/>
      <point x="20" y="356" type="curve"/>
      <point x="20" y="334" type="line"/>
      <point x="58" y="321"/>
      <point x="80" y="297"/>
      <point x="80" y="256" type="curve"/>
      <point x="80" y="202"/>
      <point x="80" y="137"/>
      <point x="79" y="72" type="curve"/>
      <point x="78" y="46"/>
      <point x="77" y="38"/>
      <point x="59" y="20" type="curve"/>
      <point x="59" y="0" type="line"/>
      <point x="77" y="-2"/>
      <point x="150" y="-8"/>
    </contour>
    <contour>
      <point x="214" y="-246" type="curve"/>
      <point x="235" y="-254" type="line"/>
      <point x="306" y="-130"/>
      <point x="356" y="-36"/>
      <point x="356" y="20" type="curve"/>
      <point x="356" y="140"/>
      <point x="357" y="200"/>
      <point x="360" y="318" type="curve"/>
      <point x="332" y="347"/>
      <point x="303" y="372"/>
      <point x="265" y="401" type="curve"/>
      <point x="228" y="378"/>
      <point x="196" y="360"/>
      <point x="163" y="342" type="curve"/>
      <point x="163" y="316" type="line"/>
      <point x="230" y="313"/>
      <point x="271" y="305"/>
      <point x="271" y="254" type="curve"/>
      <point x="271" y="177"/>
      <point x="272" y="118"/>
      <point x="272" y="30" type="curve"/>
      <point x="272" y="-84"/>
      <point x="255" y="-130"/>
    </contour>
    <contour>
      <point x="278" y="593" type="curve"/>
      <point x="252" y="590"/>
      <point x="236" y="570"/>
      <point x="239" y="549" type="curve"/>
      <point x="242" y="526"/>
      <point x="262" y="512"/>
      <point x="290" y="516" type="curve"/>
      <point x="315" y="520"/>
      <point x="330" y="537"/>
      <point x="326" y="561" type="curve"/>
      <point x="322" y="583"/>
      <point x="305" y="596"/>
    </contour>
    <contour>
      <point x="119" y="25" type="move" name="bottom"/>
    </contour>
  </outline>
</glyph>
<glyph name="l_strok" format="1">
  <advance width="375"/>
  <outline>
    <contour>
      <point x="146" y="326" type="curve"/>
      <point x="152" y="305" type="line"/>
      <point x="266" y="339"/>
      <point x="370" y="415"/>
      <point x="370" y="543" type="curve"/>
      <point x="370" y="622"/>
      <point x="305" y="653"/>
      <point x="273" y="690" type="curve"/>
      <point x="188" y="617" type="line"/>
      <point x="201" y="599" type="line"/>
      <point x="261" y="630"/>
      <point x="304" y="569"/>
      <point x="304" y="519" type="curve"/>
      <point x="304" y="430"/>
      <point x="252" y="376"/>
    </contour>
    <contour>
      <point x="227" y="1" type="curve"/>
      <point x="227" y="29" type="line"/>
      <point x="185" y="31"/>
      <point x="166" y="30"/>
      <point x="165" y="63" type="curve"/>
      <point x="163" y="153"/>
      <point x="162" y="427"/>
      <point x="164" y="572" type="curve"/>
      <point x="165" y="634"/>
      <point x="167" y="644"/>
      <point x="174" y="701" type="curve"/>
      <point x="161" y="710" type="line"/>
      <point x="115" y="679"/>
      <point x="60" y="648"/>
      <point x="20" y="630" type="curve"/>
      <point x="23" y="603" type="line"/>
      <point x="76" y="608"/>
      <point x="78" y="601"/>
      <point x="80" y="553" type="curve"/>
      <point x="85" y="411"/>
      <point x="86" y="200"/>
      <point x="82" y="57" type="curve"/>
      <point x="81" y="21"/>
      <point x="75" y="22"/>
      <point x="45" y="9" type="curve"/>
      <point x="45" y="-16" type="line"/>
      <point x="95" y="-10"/>
      <point x="161" y="2"/>
    </contour>
  </outline>
</glyph>
<glyph name="longs_longs" format="1">
  <advance width="600"/>
  <outline>
    <contour>
      <point x="27" y="25" type="line"/>
      <point x="27" y="0" type="line"/>
      <point x="266" y="0" type="line"/>
      <point x="266" y="25" type="line"/>
      <point x="202" y="32" type="line" smooth="yes"/>
      <point x="188" y="34"/>
      <point x="182" y="42"/>
      <point x="182" y="56" type="curve"/>
      <point x="182" y="213"/>
      <point x="180" y="541"/>
      <point x="190" y="588" type="curve"/>
      <point x="200" y="634"/>
      <point x="244" y="652"/>
      <point x="279" y="652" type="curve"/>
      <point x="317" y="652"/>
      <point x="431" y="647"/>
      <point x="429" y="545" type="curve"/>
      <point x="426" y="377" type="line"/>
      <point x="490" y="647" type="line"/>
      <point x="451" y="672"/>
      <point x="394" y="700"/>
      <point x="337" y="700" type="curve"/>
      <point x="299" y="700"/>
      <point x="234" y="679"/>
      <point x="194" y="656" type="curve"/>
      <point x="152" y="632"/>
      <point x="118" y="597"/>
      <point x="115" y="588" type="curve"/>
      <point x="98" y="537"/>
      <point x="104" y="442"/>
      <point x="102" y="377" type="curve"/>
      <point x="35" y="341" type="line"/>
      <point x="35" y="317" type="line"/>
      <point x="99" y="317" type="line"/>
      <point x="98" y="56" type="line" smooth="yes"/>
      <point x="98" y="42"/>
      <point x="90" y="34"/>
      <point x="76" y="32" type="curve"/>
    </contour>
    <contour>
      <point x="353" y="23" type="line"/>
      <point x="353" y="0" type="line"/>
      <point x="592" y="0" type="line"/>
      <point x="592" y="23" type="line"/>
      <point x="528" y="30" type="line" smooth="yes"/>
      <point x="514" y="32"/>
      <point x="508" y="40"/>
      <point x="508" y="54" type="curve"/>
      <point x="508" y="212"/>
      <point x="506" y="544"/>
      <point x="516" y="615" type="curve"/>
      <point x="519" y="637"/>
      <point x="568" y="660"/>
      <point x="600" y="660" type="curve"/>
      <point x="639" y="660"/>
      <point x="659" y="647"/>
      <point x="689" y="629" type="curve"/>
      <point x="705" y="644"/>
      <point x="724" y="669"/>
      <point x="725" y="689" type="curve"/>
      <point x="714" y="699"/>
      <point x="686" y="710"/>
      <point x="650" y="710" type="curve"/>
      <point x="572" y="710"/>
      <point x="518" y="672"/>
      <point x="486" y="642" type="curve"/>
      <point x="458" y="615"/>
      <point x="450" y="592"/>
      <point x="447" y="583" type="curve"/>
      <point x="430" y="532"/>
      <point x="428" y="442"/>
      <point x="426" y="377" type="curve"/>
      <point x="361" y="341" type="line"/>
      <point x="361" y="317" type="line"/>
      <point x="425" y="317" type="line"/>
      <point x="424" y="54" type="line" smooth="yes"/>
      <point x="424" y="40"/>
      <point x="416" y="32"/>
      <point x="402" y="30" type="curve"/>
    </contour>
    <contour>
      <point x="475.5" y="24.5" type="move" name="bottom"/>
    </contour>
    <contour>
      <point x="475.5" y="396.5" type="move" name="top"/>
    </contour>
  </outline>
</glyph>
<glyph name="longs_strok" format="1">
  <advance width="392"/>
  <outline>
    <contour>
      <point x="129" y="359" type="curve"/>
      <point x="141" y="331" type="line"/>
      <point x="225" y="372"/>
      <point x="290" y="366"/>
      <point x="290" y="314" type="curve"/>
      <point x="290" y="254"/>
      <point x="143" y="176"/>
      <point x="22" y="119" type="curve"/>
      <point x="16" y="73" type="line"/>
      <point x="38" y="72" type="line"/>
      <point x="64" y="122"/>
      <point x="365" y="254"/>
      <point x="365" y="333" type="curve"/>
      <point x="365" y="386"/>
      <point x="274" y="403"/>
      <point x="235" y="403" type="curve"/>
      <point x="196" y="390"/>
      <point x="139" y="346"/>
    </contour>
    <component base="longs"/>
  </outline>
</glyph>
<glyph name="longs_t" format="1">
  <advance width="567"/>
  <outline>
    <contour>
      <point x="328" y="367" type="curve"/>
      <point x="450" y="388" type="line"/>
      <point x="454" y="674" type="line"/>
      <point x="440" y="700"/>
      <point x="396" y="707"/>
      <point x="348" y="709" type="curve"/>
      <point x="373" y="677"/>
      <point x="375" y="673"/>
      <point x="377" y="645" type="curve"/>
      <point x="383" y="574"/>
      <point x="382" y="517"/>
      <point x="380" y="456" type="curve"/>
      <point x="378" y="400"/>
      <point x="369" y="393"/>
    </contour>
    <contour>
      <point x="15" y="23" type="line"/>
      <point x="15" y="0" type="line"/>
      <point x="254" y="0" type="line"/>
      <point x="254" y="23" type="line"/>
      <point x="190" y="30" type="line" smooth="yes"/>
      <point x="176" y="32"/>
      <point x="170" y="40"/>
      <point x="170" y="54" type="curve"/>
      <point x="170" y="136"/>
      <point x="168" y="573"/>
      <point x="182" y="603" type="curve"/>
      <point x="196" y="634"/>
      <point x="221" y="669"/>
      <point x="277" y="669" type="curve"/>
      <point x="329" y="669"/>
      <point x="353" y="656"/>
      <point x="383" y="639" type="curve"/>
      <point x="401" y="647"/>
      <point x="415" y="669"/>
      <point x="420" y="689" type="curve"/>
      <point x="417" y="704"/>
      <point x="381" y="710"/>
      <point x="345" y="710" type="curve"/>
      <point x="267" y="710"/>
      <point x="185" y="672"/>
      <point x="153" y="642" type="curve"/>
      <point x="125" y="615"/>
      <point x="104" y="592"/>
      <point x="101" y="583" type="curve"/>
      <point x="84" y="532"/>
      <point x="90" y="437"/>
      <point x="88" y="372" type="curve"/>
      <point x="33" y="372" type="line"/>
      <point x="33" y="346" type="line"/>
      <point x="87" y="317" type="line"/>
      <point x="86" y="54" type="line" smooth="yes"/>
      <point x="86" y="40"/>
      <point x="78" y="32"/>
      <point x="64" y="30" type="curve"/>
    </contour>
    <component base="t" xOffset="301"/>
    <contour>
      <point x="138" y="25" type="move" name="bottom"/>
    </contour>
    <contour>
      <point x="138" y="397" type="move" name="top"/>
    </contour>
  </outline>
</glyph>
<glyph name="m_macr" format="1">
  <advance width="794"/>
  <outline>
    <contour>
      <point x="161" y="511" type="curve"/>
      <point x="132" y="520" type="line"/>
      <point x="146" y="543"/>
      <point x="192" y="604"/>
      <point x="198" y="604" type="curve"/>
      <point x="238" y="604"/>
      <point x="350" y="588"/>
      <point x="382" y="588" type="curve"/>
      <point x="403" y="588"/>
      <point x="435" y="618"/>
      <point x="447" y="633" type="curve"/>
      <point x="475" y="625" type="line"/>
      <point x="461" y="602"/>
      <point x="396" y="530"/>
      <point x="390" y="530" type="curve"/>
      <point x="370" y="530"/>
      <point x="246" y="553"/>
      <point x="215" y="553" type="curve"/>
      <point x="193" y="553"/>
      <point x="175" y="528"/>
    </contour>
    <component base="m"/>
  </outline>
</glyph>
<glyph name="p_macr" format="1">
  <advance width="505"/>
  <outline>
    <contour>
      <point x="65" y="495" type="curve"/>
      <point x="42" y="507" type="line"/>
      <point x="56" y="530"/>
      <point x="144" y="596"/>
      <point x="150" y="596" type="curve"/>
      <point x="190" y="596"/>
      <point x="251" y="579"/>
      <point x="283" y="579" type="curve"/>
      <point x="304" y="579"/>
      <point x="348" y="615"/>
      <point x="360" y="620" type="curve"/>
      <point x="385" y="607" type="line"/>
      <point x="364" y="584"/>
      <point x="284" y="512"/>
      <point x="278" y="512" type="curve"/>
      <point x="239" y="512"/>
      <point x="173" y="533"/>
      <point x="142" y="533" type="curve"/>
      <point x="120" y="533"/>
      <point x="79" y="502"/>
    </contour>
    <contour>
      <point x="19" y="329" type="curve"/>
      <point x="19" y="356" type="line"/>
      <point x="53" y="374"/>
      <point x="90" y="388"/>
      <point x="121" y="405" type="curve"/>
      <point x="140" y="398" type="line"/>
      <point x="153" y="338" type="line"/>
      <point x="182" y="368"/>
      <point x="236" y="399"/>
      <point x="282" y="399" type="curve"/>
      <point x="387" y="399"/>
      <point x="480" y="330"/>
      <point x="480" y="200" type="curve"/>
      <point x="480" y="72"/>
      <point x="358" y="1"/>
      <point x="256" y="1" type="curve"/>
      <point x="232" y="1"/>
      <point x="171" y="2"/>
      <point x="152" y="-9" type="curve"/>
      <point x="152" y="-243" type="line" smooth="yes"/>
      <point x="152" y="-259"/>
      <point x="159" y="-260"/>
      <point x="180" y="-263" type="curve"/>
      <point x="236" y="-272" type="line"/>
      <point x="236" y="-300" type="line"/>
      <point x="20" y="-300" type="line"/>
      <point x="20" y="-276" type="line"/>
      <point x="36" y="-271" type="line" smooth="yes"/>
      <point x="63" y="-263"/>
      <point x="67" y="-238"/>
      <point x="68" y="-206" type="curve"/>
      <point x="73" y="-47"/>
      <point x="72" y="106"/>
      <point x="68" y="265" type="curve"/>
      <point x="67" y="306"/>
      <point x="61" y="329"/>
    </contour>
    <contour>
      <point x="153" y="297" type="curve"/>
      <point x="152" y="46" type="line"/>
      <point x="175" y="41"/>
      <point x="204" y="38"/>
      <point x="244" y="38" type="curve"/>
      <point x="325" y="38"/>
      <point x="398" y="98"/>
      <point x="398" y="192" type="curve"/>
      <point x="398" y="288"/>
      <point x="338" y="347"/>
      <point x="254" y="347" type="curve"/>
      <point x="212" y="347"/>
      <point x="175" y="327"/>
    </contour>
    <contour>
      <point x="248" y="25" type="move" name="bottom"/>
    </contour>
    <contour>
      <point x="248" y="397" type="move" name="top"/>
    </contour>
  </outline>
</glyph>
<glyph name="q_bardes_ra" format="1">
  <advance width="501"/>
  <outline>
    <contour>
      <point x="472" y="-137" type="line"/>
      <point x="476" y="-167" type="line"/>
      <point x="401" y="-188"/>
      <point x="223" y="-239"/>
      <point x="121" y="-274" type="curve"/>
      <point x="122" y="-264" type="line"/>
      <point x="150" y="-222" type="line"/>
      <point x="261" y="-198"/>
      <point x="397" y="-175"/>
      <point x="467" y="-136" type="curve"/>
    </contour>
    <contour>
      <point x="50" y="571" type="curve"/>
      <point x="50" y="525"/>
      <point x="67" y="491"/>
      <point x="114" y="491" type="curve"/>
      <point x="159" y="491"/>
      <point x="176" y="516"/>
      <point x="205" y="553" type="curve"/>
      <point x="209" y="516"/>
      <point x="227" y="491"/>
      <point x="268" y="491" type="curve"/>
      <point x="328" y="491"/>
      <point x="380" y="600"/>
      <point x="428" y="600" type="curve"/>
      <point x="455" y="600"/>
      <point x="453" y="579"/>
      <point x="455" y="555" type="curve"/>
      <point x="486" y="570" type="line"/>
      <point x="487" y="609"/>
      <point x="464" y="634"/>
      <point x="431" y="634" type="curve"/>
      <point x="396" y="634"/>
      <point x="332" y="563"/>
      <point x="298" y="563" type="curve"/>
      <point x="259" y="563"/>
      <point x="255" y="597"/>
      <point x="265" y="650" type="curve"/>
      <point x="248" y="654" type="line"/>
      <point x="211" y="599"/>
      <point x="171" y="560"/>
      <point x="141" y="560" type="curve"/>
      <point x="112" y="560"/>
      <point x="91" y="591"/>
      <point x="111" y="650" type="curve"/>
      <point x="94" y="654" type="line"/>
      <point x="79" y="629"/>
      <point x="50" y="580"/>
    </contour>
    <component base="q"/>
  </outline>
</glyph>
<glyph name="q_etfin" format="1">
  <advance width="631"/>
  <outline>
    <contour>
      <point x="508" y="-53" type="curve"/>
      <point x="484" y="-31" type="line"/>
      <point x="512" y="-4"/>
      <point x="555" y="30"/>
      <point x="555" y="64" type="curve"/>
      <point x="555" y="123"/>
      <point x="508" y="143"/>
      <point x="469" y="143" type="curve"/>
      <point x="465" y="143"/>
      <point x="443" y="138"/>
      <point x="436" y="133" type="curve"/>
      <point x="429" y="161" type="line"/>
      <point x="471" y="172"/>
      <point x="518" y="206"/>
      <point x="518" y="255" type="curve"/>
      <point x="518" y="293"/>
      <point x="489" y="314"/>
      <point x="469" y="314" type="curve"/>
      <point x="469" y="327" type="line"/>
      <point x="519" y="380" type="line"/>
      <point x="573" y="380"/>
      <point x="599" y="342"/>
      <point x="599" y="311" type="curve"/>
      <point x="599" y="294"/>
      <point x="557" y="245"/>
      <point x="533" y="207" type="curve"/>
      <point x="586" y="190"/>
      <point x="626" y="163"/>
      <point x="626" y="108" type="curve"/>
      <point x="626" y="72"/>
      <point x="552" y="-5"/>
    </contour>
    <contour>
      <point x="1358" y="-65" type="move"/>
    </contour>
    <component base="q"/>
  </outline>
</glyph>
<glyph name="q_ra" format="1">
  <advance width="500"/>
  <outline>
    <contour>
      <point x="50" y="571" type="curve"/>
      <point x="50" y="525"/>
      <point x="67" y="491"/>
      <point x="114" y="491" type="curve"/>
      <point x="159" y="491"/>
      <point x="176" y="516"/>
      <point x="205" y="553" type="curve"/>
      <point x="209" y="516"/>
      <point x="227" y="491"/>
      <point x="268" y="491" type="curve"/>
      <point x="328" y="491"/>
      <point x="380" y="600"/>
      <point x="428" y="600" type="curve"/>
      <point x="445" y="600"/>
      <point x="445" y="589"/>
      <point x="447" y="565" type="curve"/>
      <point x="478" y="580" type="line"/>
      <point x="471" y="609"/>
      <point x="464" y="634"/>
      <point x="431" y="634" type="curve"/>
      <point x="396" y="634"/>
      <point x="332" y="563"/>
      <point x="298" y="563" type="curve"/>
      <point x="259" y="563"/>
      <point x="255" y="597"/>
      <point x="265" y="650" type="curve"/>
      <point x="248" y="654" type="line"/>
      <point x="211" y="599"/>
      <point x="171" y="560"/>
      <point x="141" y="560" type="curve"/>
      <point x="112" y="560"/>
      <point x="91" y="591"/>
      <point x="111" y="650" type="curve"/>
      <point x="94" y="654" type="line"/>
      <point x="79" y="629"/>
      <point x="50" y="580"/>
    </contour>
    <component base="q"/>
  </outline>
</glyph>
<glyph name="q_strok" format="1">
  <advance width="705"/>
  <outline>
    <contour>
      <point x="411" y="216" type="curve"/>
      <point x="409" y="253" type="line"/>
      <point x="454" y="291"/>
      <point x="526" y="346"/>
      <point x="538" y="346" type="curve"/>
      <point x="605" y="346"/>
      <point x="680" y="274"/>
      <point x="680" y="209" type="curve"/>
      <point x="680" y="69"/>
      <point x="362" y="-156"/>
      <point x="167" y="-293" type="curve"/>
      <point x="149" y="-265" type="line"/>
      <point x="382" y="-97"/>
      <point x="583" y="38"/>
      <point x="583" y="180" type="curve"/>
      <point x="583" y="231"/>
      <point x="537" y="258"/>
      <point x="498" y="258" type="curve"/>
      <point x="463" y="258"/>
      <point x="447" y="255"/>
    </contour>
    <component base="q"/>
  </outline>
</glyph>
<glyph name="us" format="1">
  <advance width="600"/>
  <outline>
    <contour>
      <point x="82" y="517" type="curve"/>
      <point x="82" y="434"/>
      <point x="147" y="357"/>
      <point x="238" y="348" type="curve"/>
      <point x="378" y="397" type="line"/>
      <point x="367" y="429" type="line"/>
      <point x="349" y="418"/>
      <point x="325" y="407"/>
      <point x="292" y="407" type="curve"/>
      <point x="219" y="407"/>
      <point x="147" y="478"/>
      <point x="147" y="575" type="curve"/>
      <point x="147" y="614"/>
      <point x="169" y="651"/>
      <point x="216" y="651" type="curve"/>
      <point x="299" y="651"/>
      <point x="361" y="542"/>
      <point x="361" y="442" type="curve"/>
      <point x="361" y="266"/>
      <point x="255" y="162"/>
      <point x="170" y="65" type="curve"/>
      <point x="169" y="-9" type="line"/>
      <point x="195" y="-9" type="line"/>
      <point x="216" y="55"/>
      <point x="446" y="332"/>
      <point x="446" y="498" type="curve"/>
      <point x="446" y="631"/>
      <point x="361" y="711"/>
      <point x="240" y="711" type="curve"/>
      <point x="176" y="711"/>
      <point x="82" y="606"/>
    </contour>
  </outline>
</glyph>
<glyph name="v.ss01" format="1">
  <advance width="439"/>
  <outline>
    <contour>
      <point x="205" y="0" type="line"/>
      <point x="233" y="0" type="line"/>
      <point x="390" y="310" type="line" smooth="yes"/>
      <point x="399" y="328"/>
      <point x="417" y="352"/>
      <point x="434" y="362" type="curve"/>
      <point x="434" y="389" type="line"/>
      <point x="303" y="389" type="line"/>
      <point x="303" y="362" type="line"/>
      <point x="343" y="357"/>
      <point x="356" y="345"/>
      <point x="345" y="321" type="curve"/>
      <point x="244" y="93" type="line"/>
      <point x="136" y="324" type="line" smooth="yes"/>
      <point x="124" y="349"/>
      <point x="145" y="361"/>
      <point x="188" y="361" type="curve"/>
      <point x="188" y="389" type="line"/>
      <point x="5" y="389" type="line"/>
      <point x="5" y="361" type="line"/>
      <point x="31" y="347"/>
      <point x="40" y="323"/>
      <point x="46" y="312" type="curve"/>
    </contour>
  </outline>
</glyph>
